<?xml version="1.0" standalone="no"?>
<!DOCTYPE svg PUBLIC "-//W3C//DTD SVG 1.1//EN" "http://www.w3.org/Graphics/SVG/1.1/DTD/svg11.dtd" >
<svg xmlns="http://www.w3.org/2000/svg">
<metadata></metadata>
<defs>
<font id="frutiger_lt_std47LtCn" horiz-adv-x="983" >
<font-face units-per-em="2048" ascent="1536" descent="-512" />
<missing-glyph horiz-adv-x="491" />
<glyph unicode="&#xfb01;" horiz-adv-x="948" d="M31 934v110h162v224q0 59 10 112.5t37.5 93t78 63.5t130.5 24q31 0 52 -3.5t38 -7.5v-118q-16 6 -40 12t-55 6q-78 0 -105.5 -48t-27.5 -112v-246h185v-110h-185v-934h-118v934h-162zM668 1276v184h143v-184h-143zM680 0v1044h119v-1044h-119z" />
<glyph unicode="&#xfb02;" horiz-adv-x="948" d="M31 934v110h162v224q0 59 10 112.5t37.5 93t78 63.5t130.5 24q31 0 52 -3.5t38 -7.5v-118q-16 6 -40 12t-55 6q-78 0 -105.5 -48t-27.5 -112v-246h185v-110h-185v-934h-118v934h-162zM680 0v1536h119v-1536h-119z" />
<glyph horiz-adv-x="2048" />
<glyph horiz-adv-x="2048" />
<glyph unicode="&#xd;" horiz-adv-x="491" />
<glyph unicode=" "  horiz-adv-x="491" />
<glyph unicode="&#x09;" horiz-adv-x="491" />
<glyph unicode="&#xa0;" horiz-adv-x="491" />
<glyph unicode="!" horiz-adv-x="720" d="M285 0v184h151v-184h-151zM285 1430h151l-20 -1078h-111z" />
<glyph unicode="&#x22;" d="M287 1081v455h119v-455h-119zM578 1081v455h118v-455h-118z" />
<glyph unicode="#" d="M49 455v102h193l39 315h-181v103h193l53 455h103l-54 -455h256l54 455h102l-53 -455h180v-103h-193l-39 -315h181v-102h-193l-53 -455h-102l53 455h-256l-53 -455h-103l53 455h-180zM344 557h256l39 315h-256z" />
<glyph unicode="$" d="M160 1098q0 94 29.5 155.5t73.5 100.5t95.5 57.5t94.5 24.5v168h73v-160h6q86 0 143.5 -17.5t82.5 -27.5l-6 -144q-41 25 -94.5 47.5t-131.5 22.5v-522q86 -61 142.5 -109.5t91.5 -94.5t49 -97t14 -121q0 -156 -83 -258.5t-214 -130.5v-182h-73v176h-13q-66 0 -140.5 16 t-129.5 51l8 148q37 -33 76 -52.5t73.5 -28.5t61.5 -12.5t41 -3.5h23v582l-35 25q-74 51 -124 95t-80 88t-42 93t-12 111zM295 1116q0 -92 41 -146.5t117 -109.5v457q-29 -8 -57.5 -23.5t-51 -39t-36 -58.5t-13.5 -80zM526 119q53 18 85 52t49.5 71t22.5 70.5t5 49.5 q0 94 -42 153.5t-120 119.5v-516z" />
<glyph unicode="%" horiz-adv-x="1669" d="M147 1057q0 74 13.5 144.5t45.5 123.5t84 86t130 33t130 -33t84 -86t45 -124t13 -144q0 -74 -13 -144.5t-45 -124t-84 -86t-130 -32.5t-130 32.5t-84 86t-45.5 124t-13.5 144.5zM266 1057q0 -29 2 -76t16.5 -92t46.5 -77t89 -32t89 32t46 77t16 92t2 76t-2 76t-16 91 t-46 76.5t-89 32.5t-89 -32.5t-46.5 -76.5t-16.5 -91.5t-2 -75.5zM457 -68l641 1565h110l-641 -1565h-110zM977 373q0 74 13.5 144.5t45 123.5t83.5 86t130 33t130.5 -33t84 -86t45 -124t13.5 -144q0 -74 -13.5 -144.5t-45 -124t-84 -86t-130.5 -32.5t-130 32.5t-83.5 86 t-45 124t-13.5 144.5zM1096 373q0 -29 2 -76t16 -92t46 -77t89 -32t89 32t46.5 77t16.5 92t2 76t-2 76t-16.5 91t-46 76.5t-89.5 32.5q-57 0 -89 -32.5t-46 -76.5t-16 -91.5t-2 -75.5z" />
<glyph unicode="&#x26;" horiz-adv-x="1175" d="M115 397q0 147 78.5 249t203.5 167q-59 70 -106 152t-47 184q0 39 15 89t52 96t98.5 78t153.5 32q70 0 122 -24.5t88 -63.5t54.5 -87t18.5 -98q0 -74 -23.5 -132t-61.5 -104t-88 -85t-106 -74l295 -411q37 74 62.5 191.5t33.5 250.5h119q-4 -35 -10 -95.5t-21.5 -136 t-42 -157.5t-69.5 -156l209 -262h-162l-119 172q-6 -12 -30.5 -43t-68.5 -62.5t-108.5 -56t-152.5 -24.5q-111 0 -185.5 34.5t-118.5 91t-63.5 131t-19.5 154.5zM242 375q0 -23 10 -68t38.5 -90t81 -79t138.5 -34t163 45.5t124 112.5l-334 467q-55 -41 -97 -78t-70 -78 t-41 -89t-13 -109zM371 1141q0 -68 34.5 -130.5t94.5 -146.5q27 16 63.5 42t71.5 62t59.5 82t24.5 105q0 20 -6 50t-24.5 56.5t-50.5 45t-83 18.5q-49 0 -84 -17.5t-57.5 -45t-32.5 -59.5t-10 -62z" />
<glyph unicode="'" horiz-adv-x="491" d="M186 1081v455h119v-455h-119z" />
<glyph unicode="(" horiz-adv-x="530" d="M94 631q0 121 21.5 240.5t59.5 235.5t89 227.5t111 213.5l98 -12q-49 -109 -95 -218.5t-81 -222t-55.5 -228t-20.5 -236.5t20.5 -236.5t55.5 -228.5t81 -223.5t95 -216.5l-98 -13q-59 102 -110.5 214t-89.5 227.5t-59.5 235.5t-21.5 241z" />
<glyph unicode=")" horiz-adv-x="530" d="M57 -274q49 106 95.5 216.5t81 223.5t55 228.5t20.5 236.5t-20.5 236.5t-55 228t-81 222t-95.5 218.5l99 12q59 -102 110 -213.5t89 -227.5t59.5 -235.5t21.5 -240.5t-21.5 -241t-59.5 -235.5t-89 -227t-110 -214.5z" />
<glyph unicode="*" d="M172 1260l41 118l231 -108l-16 266h127l-16 -266l231 108l41 -118l-242 -80l150 -238l-107 -59l-120 235l-121 -235l-107 59l150 238z" />
<glyph unicode="+" horiz-adv-x="1228" d="M96 467v102h467v467h103v-467h467v-102h-467v-467h-103v467h-467z" />
<glyph unicode="," horiz-adv-x="491" d="M76 -270l98 454h152l-131 -454h-119z" />
<glyph unicode="-" horiz-adv-x="606" d="M94 512v119h418v-119h-418z" />
<glyph unicode="." horiz-adv-x="491" d="M166 0v201h160v-201h-160z" />
<glyph unicode="/" horiz-adv-x="530" d="M23 -14l383 1458h102l-383 -1458h-102z" />
<glyph unicode="0" d="M94 715q0 61 5 140t20.5 160t43 157.5t72 137t108 97.5t149.5 37t149.5 -37t107.5 -97.5t71.5 -137t43 -157.5t20.5 -160t5 -140t-5 -140t-20.5 -160t-43 -158t-71.5 -137.5t-106.5 -97t-150.5 -36.5t-150.5 36.5t-107 97t-72 137.5t-43 158t-20.5 159.5t-5 140.5z M221 715q0 -43 2 -104.5t11.5 -129t27 -135t47 -121t74.5 -87.5t109 -34q63 0 108 34t75 87.5t47 121t26.5 135t11.5 129t2 104.5t-2 104.5t-11.5 129t-26.5 135t-47 120.5t-75 87t-108 34t-108.5 -34t-75 -87t-47 -120.5t-27 -135t-11.5 -129t-2 -104.5z" />
<glyph unicode="1" d="M246 1167l254 263h127v-1430h-127v1286l-185 -213z" />
<glyph unicode="2" d="M137 0v125l109 135q61 76 139 173t146.5 203.5t114.5 217.5t46 215q0 109 -52 182.5t-171 73.5q-68 0 -144.5 -34t-127.5 -79l-19 142q47 31 122 60.5t179 29.5q94 0 161 -34t109 -87t60 -119.5t18 -134.5q0 -102 -39.5 -206.5t-96 -201t-119 -178.5t-107.5 -137 l-184 -227h565v-119h-709z" />
<glyph unicode="3" d="M100 43l11 139q14 -10 43.5 -23.5t67.5 -25.5t78 -20.5t77 -8.5q61 0 117.5 16.5t100.5 53.5t70.5 95.5t26.5 142.5q0 70 -25.5 120t-68.5 83.5t-100.5 50t-120.5 16.5h-119v119q74 0 149.5 9t137 36.5t99.5 81t38 141.5q0 14 -6 55t-34 86t-85 80t-160 35 q-45 0 -104.5 -15.5t-130.5 -68.5l-10 135q20 14 54 26.5t71.5 22t74.5 14.5t62 5q117 0 193.5 -37t123.5 -91t66.5 -117.5t19.5 -117.5q0 -131 -69.5 -208.5t-186.5 -112.5v-4q43 -6 90 -33t86 -72t64.5 -109.5t25.5 -146.5q0 -205 -121.5 -307t-340.5 -102 q-109 0 -168.5 19.5t-96.5 37.5z" />
<glyph unicode="4" d="M63 342v129l527 959h168v-969h162v-119h-162v-342h-127v342h-568zM174 461h457v842h-4z" />
<glyph unicode="5" d="M178 41l6 137q74 -49 142.5 -61.5t103.5 -12.5q88 0 147.5 32t96.5 82t52 112.5t15 124.5q0 63 -16 120.5t-53 100.5t-95.5 68.5t-144.5 25.5q-43 0 -72.5 -3t-54 -9t-49.5 -15.5t-55 -21.5q-4 0 -5 -1t-3 -1v711h608v-119h-490v-451q29 10 72 19.5t86 9.5 q119 0 197.5 -37t126 -97.5t66 -138t18.5 -161.5q0 -102 -28 -187.5t-84 -149t-141 -98t-200 -34.5q-47 0 -83 5t-64.5 12t-52 17.5t-46.5 20.5z" />
<glyph unicode="6" d="M94 618q0 43 2 121t16.5 170t44 187.5t85 172.5t141.5 126t211 49q57 0 119.5 -11.5t115.5 -27.5l-10 -143q-25 12 -76 37.5t-137 25.5q-94 0 -160.5 -42t-109.5 -105.5t-67.5 -139t-37 -145.5t-15.5 -122t-3 -66h4q31 70 74 109.5t86 60t80 25.5t57 5q111 0 182.5 -48 t114.5 -119.5t60.5 -152.5t17.5 -149q0 -72 -20.5 -150.5t-66.5 -145t-122 -110.5t-188 -44q-129 0 -208 65.5t-121 161.5t-55.5 205.5t-13.5 199.5zM246 453q0 -104 24.5 -172t61.5 -107t80 -54.5t80 -15.5q43 0 89 16.5t85 57.5t63.5 108.5t24.5 170.5q0 37 -10.5 93 t-39 108.5t-80 90t-132.5 37.5q-55 0 -100.5 -24.5t-78 -69.5t-50 -105t-17.5 -134z" />
<glyph unicode="7" d="M133 1311v119h717v-125l-449 -1305h-143l465 1311h-590z" />
<glyph unicode="8" d="M90 373q0 96 38 164.5t86 112.5t92 67.5t56 27.5q-109 59 -173 150.5t-64 214.5q0 92 36 155.5t91 103.5t119.5 57.5t122.5 17.5q106 0 175.5 -33t111.5 -82t58.5 -106.5t16.5 -106.5q0 -74 -25.5 -132t-63.5 -103t-80 -77t-75 -54q39 -20 88.5 -50t92.5 -73t71.5 -103.5 t28.5 -144.5q0 -61 -19.5 -131t-66.5 -128.5t-125 -96t-193 -37.5q-96 0 -170.5 31.5t-125 85t-77 123t-26.5 147.5zM225 369q0 -51 17.5 -98.5t52.5 -84t85 -59.5t118 -23q33 0 78 11.5t84.5 42t68.5 83t29 136.5q0 63 -26.5 112.5t-68.5 87t-92.5 65.5t-97.5 50l-41 -24 q-78 -43 -120 -87t-61.5 -84t-22.5 -74t-3 -54zM260 1096q0 -90 64.5 -170t191.5 -127q109 78 157 158.5t48 152.5q0 49 -19.5 89t-52.5 67.5t-73.5 43t-86.5 15.5q-45 0 -86 -16.5t-72.5 -47t-51 -72.5t-19.5 -93z" />
<glyph unicode="9" d="M94 993q0 72 20.5 151t66.5 145.5t122 110.5t189 44q86 0 149.5 -31t107.5 -81t71.5 -115.5t43 -136t20.5 -140.5t5 -129q0 -43 -2 -121t-16.5 -170t-44 -187t-85 -172t-141.5 -126t-211 -49q-57 0 -119.5 11t-115.5 28l10 143q25 -12 76 -38t137 -26q94 0 160.5 42 t109.5 105.5t67.5 139.5t37 145.5t15.5 122t3 66.5h-4q-31 -70 -74 -110t-86 -60t-80 -25.5t-57 -5.5q-111 0 -182.5 48.5t-114.5 120t-60.5 152.5t-17.5 148zM229 973q0 -37 10.5 -93.5t39 -108.5t80 -90t133.5 -38q55 0 100 24.5t77.5 69.5t50 105.5t17.5 134.5 q0 104 -24.5 172t-61.5 106.5t-80 54t-79 15.5q-43 0 -89.5 -16.5t-85 -57.5t-63.5 -108.5t-25 -169.5z" />
<glyph unicode=":" horiz-adv-x="491" d="M166 0v201h160v-201h-160zM166 844v200h160v-200h-160z" />
<glyph unicode=";" horiz-adv-x="491" d="M76 -270l98 454h152l-131 -454h-119zM166 844v200h160v-200h-160z" />
<glyph unicode="&#x3c;" horiz-adv-x="1228" d="M96 463v110l1037 478v-111l-910 -422l910 -422v-110z" />
<glyph unicode="=" horiz-adv-x="1228" d="M96 268v103h1037v-103h-1037zM96 666v102h1037v-102h-1037z" />
<glyph unicode="&#x3e;" horiz-adv-x="1228" d="M96 -14v110l910 422l-910 422v111l1037 -478v-110z" />
<glyph unicode="?" horiz-adv-x="909" d="M182 1397q53 23 107.5 35t113.5 12q102 0 172 -30t113 -78t62.5 -109.5t19.5 -126.5q0 -45 -5 -83t-23.5 -82t-53.5 -102.5t-94 -144.5q-37 -53 -59.5 -92t-35 -76t-16.5 -77t-4 -93h-119q4 86 10.5 137.5t22 93.5t45 86t78.5 117q76 113 97.5 180.5t21.5 120.5 q0 104 -60.5 172t-168.5 68q-27 0 -84.5 -10t-128.5 -58zM336 0v184h151v-184h-151z" />
<glyph unicode="@" horiz-adv-x="1638" d="M90 715q0 152 57.5 285t155.5 231t231.5 155.5t284.5 57.5q152 0 285 -43t231.5 -122t155.5 -191.5t57 -251.5q0 -96 -37.5 -191.5t-98 -170.5t-137.5 -122t-155 -47q-76 0 -127 35t-51 94h-2q-18 -20 -45 -42.5t-59.5 -42t-72.5 -32t-85 -12.5q-63 0 -112.5 21.5 t-82 59.5t-49 89t-16.5 109q0 98 34.5 197.5t97 179t149.5 130t192 50.5q80 0 132 -43t79 -117h6l45 127h102l-194 -559q-6 -20 -15.5 -43t-9.5 -41q0 -25 15.5 -44.5t72.5 -21.5q61 0 120 41t104 104.5t71.5 141.5t26.5 156q0 123 -51.5 218t-138.5 159.5t-200.5 97.5 t-236.5 33q-129 0 -243.5 -49.5t-199.5 -135.5t-134 -201.5t-49 -248.5t49 -249t134 -202t199.5 -135t243.5 -49q86 0 170 14.5t161 46t141.5 80.5t111.5 121h110q-53 -90 -127.5 -157.5t-166 -111.5t-192.5 -65.5t-208 -21.5q-152 0 -285 57t-231 155.5t-155.5 231.5 t-57.5 285zM520 594q0 -88 38 -141.5t130 -53.5q76 0 141.5 48.5t111.5 119t72.5 150.5t26.5 145q0 184 -157 185q-82 0 -148.5 -45.5t-115 -113t-74 -147t-25.5 -147.5z" />
<glyph unicode="A" horiz-adv-x="1138" d="M27 0l475 1430h135l475 -1430h-135l-125 393h-569l-129 -393h-127zM319 512h494l-242 782h-4z" />
<glyph unicode="B" horiz-adv-x="1024" d="M164 0v1430h334q94 0 162.5 -30t113.5 -78t67.5 -110.5t22.5 -128.5q0 -80 -22.5 -136t-56 -95t-73.5 -62.5t-73 -37.5v-4q49 -14 95 -41t82 -69t57.5 -101.5t21.5 -137.5q0 -100 -28.5 -168.5t-73.5 -112.5t-101.5 -67.5t-111 -35t-100.5 -13.5t-70 -2h-246zM291 119 h180q104 0 161.5 37t86.5 84t35 92t6 61q0 127 -71 208t-204 81h-194v-563zM291 801h174q113 0 188.5 68.5t75.5 197.5q0 51 -14.5 95t-46 77t-80.5 52.5t-119 19.5h-178v-510z" />
<glyph unicode="C" horiz-adv-x="1099" d="M117 723q0 137 33.5 267t107.5 231.5t190.5 162t282.5 60.5q55 0 122 -11.5t118 -35.5l-6 -144q-14 12 -40 24.5t-58.5 24t-69.5 17.5t-76 6q-25 0 -70 -6t-97 -26.5t-105.5 -60.5t-97.5 -107.5t-71.5 -167t-27.5 -238.5q0 -186 50 -306t122 -188.5t152.5 -94.5 t142.5 -26q41 0 72.5 5.5t59.5 13.5t54.5 19.5t55.5 25.5l6 -137q-29 -10 -91.5 -27.5t-152.5 -17.5q-160 0 -274.5 61.5t-188.5 163.5t-108.5 235.5t-34.5 276.5z" />
<glyph unicode="D" horiz-adv-x="1138" d="M164 0v1430h186q358 0 528.5 -172.5t170.5 -522.5q0 -156 -39 -290t-120 -233t-207 -155.5t-298 -56.5h-221zM291 119h131q119 0 211 43t154.5 120.5t94 187.5t31.5 245q0 55 -5 121.5t-21.5 132t-50 128t-91 109.5t-142.5 76t-204 29h-108v-1192z" />
<glyph unicode="E" horiz-adv-x="909" d="M164 0v1430h606v-119h-479v-508h457v-119h-457v-565h502v-119h-629z" />
<glyph unicode="F" horiz-adv-x="833" d="M164 0v1430h584v-119h-457v-508h434v-119h-434v-684h-127z" />
<glyph unicode="G" horiz-adv-x="1214" d="M104 729q0 137 41 266t119 228.5t193.5 160t267.5 60.5q43 0 89 -7t87 -18.5t74 -24t49 -20.5l-6 -139q-20 16 -55 32.5t-76 29t-85 20.5t-85 8q-78 0 -162 -31.5t-153.5 -103.5t-115.5 -187.5t-46 -285.5q0 -98 24.5 -206t81.5 -199t152.5 -149.5t236.5 -58.5 q55 0 101.5 8.5t95.5 34.5v502h-256v119h383v-705q-78 -41 -160 -59t-170 -18q-125 0 -220 35.5t-165 96t-116 137.5t-73.5 160t-39 165t-11.5 149z" />
<glyph unicode="H" horiz-adv-x="1138" d="M164 0v1430h127v-627h557v627h127v-1430h-127v684h-557v-684h-127z" />
<glyph unicode="I" horiz-adv-x="454" d="M164 0v1430h127v-1430h-127z" />
<glyph unicode="J" horiz-adv-x="606" d="M43 0v135q23 -10 44.5 -16t51.5 -6q63 0 99 25.5t53.5 66.5t20.5 91t3 101v1033h127v-1037q0 -80 -10 -152.5t-41 -130t-90 -91t-158 -33.5q-29 0 -54.5 5t-45.5 9z" />
<glyph unicode="K" horiz-adv-x="1024" d="M164 0v1430h127v-627h4l516 627h156l-572 -680l619 -750h-168l-551 700h-4v-700h-127z" />
<glyph unicode="L" horiz-adv-x="796" d="M164 0v1430h127v-1311h465v-119h-592z" />
<glyph unicode="M" horiz-adv-x="1515" d="M164 0v1430h194l398 -1242h4l397 1242h195v-1430h-119v1311h-4l-422 -1311h-96l-424 1311h-4v-1311h-119z" />
<glyph unicode="N" horiz-adv-x="1214" d="M164 0v1430h164l600 -1270h4v1270h119v-1430h-164l-600 1262h-4v-1262h-119z" />
<glyph unicode="O" horiz-adv-x="1216" d="M104 715q0 31 2.5 97.5t16.5 147t45 166.5t86 157t142 116t212 45t212 -45t142.5 -116t86 -157t45 -166.5t16.5 -147.5t2 -97q0 -31 -2 -97.5t-16.5 -147.5t-45 -167t-86 -156.5t-141.5 -115.5t-213 -45t-213 45t-141 115.5t-86 156.5t-45 167t-16.5 147.5t-2.5 97.5z M240 715q0 -29 2 -85.5t12 -124t31.5 -138t62.5 -129t104.5 -96.5t155.5 -38t155.5 38t104.5 96.5t62.5 129t32 138t12.5 124t2 85.5t-2 85t-12.5 123.5t-32 138.5t-62.5 129t-104.5 96t-155.5 38t-155.5 -38t-104.5 -96t-62.5 -129t-31.5 -138.5t-12 -123.5t-2 -85z" />
<glyph unicode="P" horiz-adv-x="948" d="M164 0v1430h268q100 0 181 -23t137.5 -71t87 -124.5t30.5 -185.5q0 -117 -36.5 -193.5t-94 -123.5t-128 -66.5t-140.5 -19.5h-178v-623h-127zM291 741h129q70 0 128 13.5t99 46.5t63.5 87t22.5 138q0 106 -34.5 164.5t-86 85.5t-109 31t-102.5 4h-110v-570z" />
<glyph unicode="Q" horiz-adv-x="1216" d="M104 715q0 31 2.5 97.5t16.5 147t45 166.5t86 157t142 116t212 45t212 -45t142.5 -116t86 -157t45 -166.5t16.5 -147.5t2 -97q0 -27 -1 -78t-10 -116.5t-26.5 -138.5t-51.5 -140.5t-86 -124t-128 -88.5l266 -291h-162l-229 256q-10 0 -28.5 -4t-47.5 -4q-127 0 -213 45 t-141 115.5t-86 156.5t-45 167t-16.5 147.5t-2.5 97.5zM240 715q0 -29 2 -85.5t12 -124t31.5 -138t62.5 -129t104.5 -96.5t155.5 -38t155.5 38t104.5 96.5t62.5 129t32 138t12.5 124t2 85.5t-2 85t-12.5 123.5t-32 138.5t-62.5 129t-104.5 96t-155.5 38t-155.5 -38 t-104.5 -96t-62.5 -129t-31.5 -138.5t-12 -123.5t-2 -85z" />
<glyph unicode="R" horiz-adv-x="1024" d="M164 0v1430h330q92 0 162.5 -28t118.5 -77t71.5 -115.5t23.5 -144.5q0 -92 -26.5 -154.5t-68.5 -102.5t-91 -60.5t-94 -28.5v-4q14 -4 34.5 -10.5t41 -19.5t39 -35.5t30.5 -57.5l215 -592h-135l-174 489q-16 49 -33.5 82t-39 54.5t-49 31t-66.5 9.5h-162v-666h-127z M291 784h174q96 0 150.5 37t81 85t32.5 92t6 61q0 88 -30.5 138t-74.5 75.5t-92.5 32t-80.5 6.5h-166v-527z" />
<glyph unicode="S" horiz-adv-x="872" d="M104 1098q0 119 46.5 187.5t109 104t124.5 45t93 9.5q86 0 143.5 -17.5t81.5 -27.5l-6 -144q-41 25 -94 47.5t-133 22.5q-31 0 -71 -9t-74.5 -32.5t-59 -64.5t-24.5 -103q0 -53 13 -92t38.5 -70.5t61.5 -61.5t83 -63q94 -70 158.5 -121t102.5 -99t54.5 -101t16.5 -127 q0 -90 -28.5 -163t-80 -125t-122 -79.5t-152.5 -27.5q-66 0 -140.5 16t-129.5 51l8 148q37 -33 76 -52.5t73.5 -28.5t61 -12.5t41.5 -3.5q86 0 137 33t77.5 76t35 86t8.5 63q0 61 -18.5 107.5t-52.5 85.5t-85 76t-115 80q-74 51 -124 95t-79.5 88t-42 93t-12.5 111z" />
<glyph unicode="T" horiz-adv-x="872" d="M41 1311v119h790v-119h-331v-1311h-127v1311h-332z" />
<glyph unicode="U" horiz-adv-x="1175" d="M164 526v904h127v-902q0 -80 10 -156.5t42 -136t90.5 -95.5t154.5 -36q100 0 159.5 39t90 100.5t39 137.5t8.5 147v902h127v-904q0 -106 -19.5 -203.5t-67.5 -172t-130 -119.5t-207 -45t-207 41t-130 113.5t-67.5 172t-19.5 213.5z" />
<glyph unicode="V" horiz-adv-x="1062" d="M33 1430h135l350 -1254h4l381 1254h127l-450 -1430h-119z" />
<glyph unicode="W" horiz-adv-x="1593" d="M25 1430h135l256 -1278h4l297 1278h174l268 -1278h4l279 1278h127l-330 -1430h-160l-280 1286h-4l-303 -1286h-150z" />
<glyph unicode="X" horiz-adv-x="1062" d="M20 0l449 758l-393 672h151l326 -570l332 570h135l-399 -672l421 -758h-151l-348 649l-371 -649h-152z" />
<glyph unicode="Y" horiz-adv-x="1024" d="M88 1430h135l291 -693l287 693h135l-361 -809v-621h-126v621z" />
<glyph unicode="Z" horiz-adv-x="909" d="M74 0v127l612 1184h-592v119h727v-123l-614 -1188h629v-119h-762z" />
<glyph unicode="[" horiz-adv-x="530" d="M160 -287v1835h260v-94h-150v-1647h150v-94h-260z" />
<glyph unicode="\" horiz-adv-x="530" d="M23 1444h102l383 -1458h-102z" />
<glyph unicode="]" horiz-adv-x="530" d="M111 -193h149v1647h-149v94h260v-1835h-260v94z" />
<glyph unicode="^" horiz-adv-x="1228" d="M90 502l473 928h103l473 -928h-119l-406 801l-405 -801h-119z" />
<glyph unicode="_" horiz-adv-x="1024" d="M0 -154h1024v-102h-1024v102z" />
<glyph unicode="`" horiz-adv-x="380" d="M-14 1491h143l156 -291h-103z" />
<glyph unicode="a" horiz-adv-x="909" d="M84 289q0 84 26.5 141t70.5 95t98.5 58.5t110.5 31t108.5 12.5t89.5 2h76q0 49 -3.5 105.5t-24 103.5t-64.5 78.5t-126 31.5q-53 0 -98 -15t-80 -34.5t-57.5 -37t-26.5 -21.5l-18 127q74 41 137.5 66.5t149.5 25.5q121 0 186.5 -43t95 -101.5t34.5 -116t5 -85.5v-480 q0 -59 4 -116.5t8 -116.5h-106l-8 150h-4q-53 -86 -122 -125t-171 -39q-61 0 -113.5 23.5t-92.5 64.5t-62.5 96t-22.5 119zM211 289q0 -33 12.5 -68t37 -62.5t60 -45t82.5 -17.5q20 0 63.5 8.5t87.5 39t77 92t33 167.5v123q-92 0 -174 -4t-144.5 -25.5t-98.5 -70.5t-36 -137 z" />
<glyph unicode="b" horiz-adv-x="948" d="M123 0q4 68 6 145.5t2 200.5v1190h119v-627h4q47 72 108.5 111t155.5 39q98 0 165 -50.5t106.5 -125t57 -161.5t17.5 -161q0 -37 -2 -93t-13 -120.5t-33.5 -129t-61.5 -116t-98.5 -84t-143.5 -32.5q-98 0 -158.5 42t-115.5 115h-5v-143h-110zM242 510q0 -80 12 -154.5 t41 -132t79 -92.5t126 -35q59 0 100 25.5t67.5 65.5t40 89.5t20.5 97.5t8 88t1 60q0 90 -12 168t-41 135.5t-74 90t-112 32.5q-96 0 -148.5 -49t-76 -117.5t-27.5 -144.5t-4 -127z" />
<glyph unicode="c" horiz-adv-x="757" d="M84 518q0 119 26.5 219.5t80 171t135.5 110.5t190 40q63 0 110.5 -10.5t84.5 -26.5l-6 -135q-35 29 -88.5 41t-100.5 12q-59 0 -114.5 -21.5t-97.5 -68.5t-67.5 -120t-25.5 -177q0 -143 35 -231.5t85 -136.5t105.5 -64.5t98.5 -16.5q18 0 42.5 3.5t50 9.5t48 16t35.5 27 l10 -135q-39 -16 -93.5 -27.5t-109.5 -11.5q-84 0 -161.5 32.5t-138 98t-97.5 166t-37 235.5z" />
<glyph unicode="d" horiz-adv-x="948" d="M84 561q0 74 17.5 161t57.5 161.5t106.5 125t164.5 50.5q100 0 161.5 -39t102.5 -111h4v627h119v-1190q0 -123 2 -200.5t6 -145.5h-110v143h-4q-29 -37 -57.5 -66.5t-60.5 -49t-70 -30.5t-87 -11q-86 0 -144.5 32.5t-97 84t-61 116t-34 129t-13.5 120.5t-2 93zM211 522 q0 -23 1 -61.5t8 -86.5t20.5 -97.5t40 -89.5t67.5 -65.5t101 -25.5q76 0 126 35t78.5 92.5t41 132t12.5 154.5q0 51 -4.5 127t-28 144.5t-75.5 117.5t-148 49q-68 0 -113 -32.5t-73.5 -90t-41 -135.5t-12.5 -168z" />
<glyph unicode="e" horiz-adv-x="872" d="M84 522q0 147 33 249.5t86 166t119.5 92.5t132.5 29q113 0 179 -54.5t101 -138.5t44 -186t9 -197h-577q0 -145 40 -224t90 -114.5t98 -42t67 -6.5q51 0 115.5 22.5t109.5 63.5l6 -137q-37 -20 -93 -39.5t-150 -19.5q-102 0 -173 32.5t-116 83t-69.5 112.5t-36 122.5 t-13.5 110t-2 75.5zM211 594h451q0 104 -19.5 172t-50.5 108.5t-69 57t-74 16.5q-61 0 -105.5 -37t-74 -90t-44 -114.5t-14.5 -112.5z" />
<glyph unicode="f" horiz-adv-x="530" d="M31 934v110h162v224q0 59 10 112.5t37.5 93t78 63.5t130.5 24q31 0 52 -3.5t38 -7.5v-118q-16 6 -40 12t-55 6q-78 0 -105.5 -48t-27.5 -112v-246h185v-110h-185v-934h-118v934h-162z" />
<glyph unicode="g" horiz-adv-x="948" d="M84 483q0 37 2 93.5t13.5 121t34 129t61 115.5t98 84t143.5 33q98 0 163 -43t112 -125h4v153h110q-4 -68 -6 -145.5t-2 -200.5v-673q0 -221 -91 -350.5t-300 -129.5q-43 0 -76 3t-65.5 10.5t-69.5 17.5t-86 27l8 133q76 -43 156 -61.5t131 -18.5q96 0 151.5 39t83 93 t33.5 112.5t6 99.5v143h-4q-47 -78 -108.5 -117.5t-155.5 -39.5q-98 0 -164.5 50t-106.5 125t-57.5 161.5t-17.5 160.5zM211 522q0 -90 12.5 -168t41 -135t73.5 -90t113 -33q74 0 123 32t78.5 89t42 138t12.5 180q0 80 -12.5 154.5t-41 132t-79 92t-125.5 34.5 q-59 0 -100.5 -25.5t-68 -65.5t-40 -89t-20.5 -97t-8 -88.5t-1 -60.5z" />
<glyph unicode="h" horiz-adv-x="948" d="M139 0v1536h119v-645h4q8 16 25.5 45t48.5 56.5t77 47t107 19.5q72 0 122 -21.5t82 -55.5t49.5 -76t25.5 -82t9 -73.5t1 -50.5v-700h-119v705q0 27 -3 68.5t-21.5 80.5t-57.5 66.5t-112 27.5q-55 0 -99.5 -23.5t-75 -64.5t-47 -95t-16.5 -116v-649h-119z" />
<glyph unicode="i" horiz-adv-x="417" d="M137 1276v184h144v-184h-144zM150 0v1044h118v-1044h-118z" />
<glyph unicode="j" horiz-adv-x="417" d="M-18 -324q10 -4 21 -8t34 -4q18 0 38.5 2t37 15.5t27 41t10.5 80.5v1241h118v-1224q0 -41 -4 -88t-24.5 -89t-62.5 -70t-118 -28q-33 0 -49 4.5t-28 8.5v118zM137 1276v184h144v-184h-144z" />
<glyph unicode="k" horiz-adv-x="872" d="M143 0v1536h119v-911l395 419h152l-442 -462l483 -582h-160l-424 530h-4v-530h-119z" />
<glyph unicode="l" horiz-adv-x="417" d="M150 0v1536h118v-1536h-118z" />
<glyph unicode="m" horiz-adv-x="1404" d="M131 1044h111q4 -35 5 -65.5t3 -87.5h4q12 29 32.5 58.5t50.5 54t69.5 40t89.5 15.5q63 0 106 -17.5t68.5 -44t40 -55.5t24.5 -51q12 18 32.5 47t52.5 55.5t75 46t100 19.5q80 0 132.5 -30t83 -79t43 -109.5t12.5 -121.5v-719h-119v705q0 27 -3 68.5t-18.5 80.5 t-50.5 66.5t-98 27.5q-55 0 -96 -23.5t-67 -61.5t-39 -88t-13 -105v-670h-119v727q0 102 -42 161.5t-116 59.5q-51 0 -93 -23.5t-71.5 -64.5t-46 -95t-16.5 -116v-649h-119v721q0 82 -3 162t-5 161z" />
<glyph unicode="n" horiz-adv-x="948" d="M131 1044h111q4 -35 5 -65.5t3 -87.5h4q8 16 26.5 45t50 56.5t78 47t111.5 19.5q72 0 122 -21.5t82 -55.5t49.5 -76t25.5 -82t9 -73.5t1 -50.5v-700h-119v705q0 27 -3 68.5t-21.5 80.5t-57.5 66.5t-112 27.5q-55 0 -99.5 -23.5t-75 -64.5t-47 -95t-16.5 -116v-649h-119 v721q0 82 -3 162t-5 161z" />
<glyph unicode="o" horiz-adv-x="950" d="M84 522q0 98 18.5 194.5t62.5 172.5t119.5 123t190.5 47t190.5 -47t119.5 -123t62.5 -172t18.5 -195q0 -98 -18.5 -194.5t-62.5 -172t-119.5 -122.5t-190.5 -47t-190.5 47t-119.5 122.5t-62.5 172t-18.5 194.5zM211 522q0 -20 1 -60t8 -87t23.5 -96.5t46 -90.5 t74.5 -66.5t111 -25.5t111 25.5t74.5 66.5t46 90.5t23.5 96.5t8 87t1 60t-1 60.5t-8 87.5t-23.5 96t-46 90t-74.5 66.5t-111 25.5t-111 -25.5t-74.5 -66.5t-46 -90t-23.5 -96t-8 -87t-1 -61z" />
<glyph unicode="p" horiz-adv-x="948" d="M123 1044h110v-153h5q53 82 118.5 125t155.5 43q84 0 143.5 -32t98.5 -82t61.5 -110.5t33.5 -115.5t13 -99.5t2 -62.5q0 -111 -19.5 -214t-60.5 -183t-106.5 -127t-159.5 -47t-160.5 37.5t-103.5 107.5h-4v-573h-119v1140q0 123 -2 201t-6 145zM242 535q0 -53 4 -128 t27.5 -143.5t75.5 -118t149 -49.5q68 0 112.5 33t73.5 90t41 135t12 168q0 20 -1 60.5t-8 88.5t-20.5 97t-40 89t-67.5 65.5t-100 25.5q-76 0 -126 -34.5t-79 -92t-41 -132.5t-12 -154z" />
<glyph unicode="q" horiz-adv-x="948" d="M84 483q0 37 2 93.5t13.5 121t34 129t61 115.5t98 84t143.5 33q98 0 163 -43t112 -125h4v153h110q-4 -68 -6 -145.5t-2 -200.5v-1140h-119v585h-4q-47 -78 -108.5 -117.5t-155.5 -39.5q-98 0 -164.5 50t-106.5 125t-57.5 162t-17.5 160zM211 522q0 -90 12.5 -168t41 -135 t73.5 -90t113 -33q74 0 123 32t78.5 89t42 138t12.5 180q0 80 -12.5 154.5t-41 132t-79 92t-125.5 34.5q-59 0 -100.5 -25.5t-68 -65.5t-40 -89t-20.5 -97t-8 -88.5t-1 -60.5z" />
<glyph unicode="r" horiz-adv-x="569" d="M131 1044h111q2 -47 4 -90t4 -75h4q29 55 59.5 91t65.5 55t72.5 26.5t80.5 7.5v-127q-141 0 -207.5 -64.5t-66.5 -210.5v-657h-119v721q0 82 -3 162t-5 161z" />
<glyph unicode="s" horiz-adv-x="720" d="M74 35l16 133q12 -10 38 -22.5t57.5 -22.5t68.5 -18.5t74 -8.5q86 0 139 54.5t53 125.5q0 37 -12 65t-34.5 51.5t-58.5 44t-81 42.5q-66 33 -113 61.5t-76.5 61.5t-43 73t-13.5 95q0 74 28.5 128t72.5 90t98.5 53.5t107.5 17.5t108.5 -10.5t84.5 -20.5l-17 -123 q-45 16 -86 29.5t-92 13.5q-47 0 -79.5 -15t-55 -40t-33 -54.5t-10.5 -56.5q0 -37 8 -60.5t27.5 -44t54.5 -41t88 -48.5q53 -29 100.5 -55.5t81 -60.5t53 -77t19.5 -106q0 -72 -23.5 -127.5t-65.5 -95t-98.5 -60t-121.5 -20.5q-98 0 -157.5 16t-106.5 33z" />
<glyph unicode="t" horiz-adv-x="569" d="M37 934v110h156v209l118 37v-246h213v-110h-213v-680q0 -31 4 -59.5t16.5 -50t35 -35t59.5 -13.5q41 0 61.5 7.5t36.5 15.5v-119q-23 -8 -59.5 -11t-77.5 -3q-57 0 -95 20.5t-59.5 53t-30.5 75.5t-9 86v713h-156z" />
<glyph unicode="u" horiz-adv-x="948" d="M139 315v729h119v-704q0 -27 3 -69t21.5 -80.5t57.5 -66.5t113 -28q55 0 99 23.5t74.5 64.5t47 95.5t16.5 115.5v649h119v-720q0 -82 3 -162t6 -162h-111q-4 35 -5.5 65.5t-3.5 88.5h-4q-4 -16 -22.5 -45t-50 -56.5t-79.5 -47t-114 -19.5q-86 0 -141.5 28.5t-88 74.5 t-46 105.5t-13.5 120.5z" />
<glyph unicode="v" horiz-adv-x="798" d="M23 1044h127l247 -909h4l256 909h119l-305 -1044h-143z" />
<glyph unicode="w" horiz-adv-x="1327" d="M23 1044h127l219 -917h4l211 917h151l230 -917h4l217 917h119l-273 -1044h-147l-226 909h-4l-213 -909h-139z" />
<glyph unicode="x" horiz-adv-x="796" d="M23 0l294 563l-270 481h143l207 -389l215 389h136l-283 -489l309 -555h-143l-242 459l-231 -459h-135z" />
<glyph unicode="y" horiz-adv-x="757" d="M20 1044h127l234 -868h4l233 868h119l-342 -1239q-14 -53 -29.5 -100t-41 -83t-65.5 -56.5t-101 -20.5q-25 0 -41.5 3t-38.5 10l6 120q16 -10 39.5 -16t44.5 -6q43 0 67.5 36t38.5 85l54 198z" />
<glyph unicode="z" horiz-adv-x="757" d="M61 0v119l500 815h-483v110h610v-118l-500 -815h508v-111h-635z" />
<glyph unicode="{" horiz-adv-x="530" d="M70 584v94q35 0 58.5 12t37.5 42t20.5 81t6.5 129v369q0 127 51 182t157 55h93v-94h-62q-66 0 -97.5 -32.5t-31.5 -112.5v-432q0 -119 -36 -173.5t-95 -70.5v-4q59 -16 95 -70.5t36 -173.5v-432q0 -80 32 -113t97 -33h62v-94h-93q-106 0 -157 55.5t-51 182.5v368 q0 78 -6.5 129.5t-20.5 81t-38 42t-58 12.5z" />
<glyph unicode="|" horiz-adv-x="454" d="M176 -512v2048h103v-2048h-103z" />
<glyph unicode="}" horiz-adv-x="530" d="M37 -193h61q66 0 97.5 33t31.5 113v432q0 119 36 173t95 71v4q-59 16 -95 70.5t-36 173.5v432q0 80 -31.5 112.5t-97.5 32.5h-61v94h92q106 0 157.5 -55t51.5 -182v-369q0 -78 6 -129t20.5 -81t38 -42t58.5 -12v-94q-35 0 -58.5 -12.5t-38 -42t-20.5 -81t-6 -129.5v-368 q0 -127 -51 -182.5t-158 -55.5h-92v94z" />
<glyph unicode="~" horiz-adv-x="1228" d="M141 463q16 33 40 64.5t54.5 56t70.5 40t91 15.5q53 0 110.5 -18.5t117.5 -47.5q55 -29 111.5 -51t97.5 -22q31 0 56 13t46.5 33.5t40 47.5t37.5 53l73 -74q-23 -33 -48 -64.5t-55 -56t-67.5 -40t-85.5 -15.5q-57 0 -107 19.5t-101 48.5q-49 29 -104.5 50.5t-115.5 21.5 q-37 0 -64.5 -13.5t-50 -34t-41 -47t-32.5 -53.5z" />
<glyph unicode="&#xa1;" horiz-adv-x="720" d="M285 -385l20 1077h111l20 -1077h-151zM285 860v184h151v-184h-151z" />
<glyph unicode="&#xa2;" d="M150 518q0 119 26.5 219.5t79.5 171t135 110.5t191 40h36l35 229h86l-37 -239q23 -4 42.5 -10.5t31.5 -16.5l-8 -135q-35 29 -86 41l-119 -819q10 -2 18.5 -3.5t18.5 -1.5q18 0 43 3.5t50.5 9.5t48 16t34.5 27l10 -135q-14 -10 -40.5 -18.5t-55 -12.5t-57.5 -6t-49 -2 q-10 0 -20.5 1t-20.5 1l-37 -250h-86l41 268q-66 18 -122 60.5t-98 106t-66.5 150.5t-24.5 195zM276 553q0 -100 17.5 -173t47.5 -123t65.5 -81t72.5 -45l121 809h-16q-61 0 -116.5 -21.5t-97.5 -68.5t-68 -120t-26 -177z" />
<glyph unicode="&#xa3;" d="M129 0v119h145v588h-145v110h145q0 92 2.5 159.5t8.5 119t18 90.5t33 74q57 100 148 142t178 42q53 0 120.5 -12.5t114.5 -40.5l-20 -129q-35 27 -92.5 45t-116.5 18q-80 0 -131.5 -32.5t-82 -82t-42 -110t-11.5 -115.5v-168h328v-110h-328v-588h476v-119h-748z" />
<glyph unicode="&#xa4;" d="M49 340l96 100q-49 59 -72.5 131t-23.5 144t23.5 143.5t72.5 130.5l-96 101l68 67l98 -98q59 49 132 73.5t145 24.5t144.5 -24.5t131.5 -73.5l98 98l68 -67l-96 -101q49 -59 72.5 -131t23.5 -143q0 -72 -23.5 -143.5t-72.5 -131.5l96 -100l-68 -68l-98 99 q-59 -49 -132 -74t-144 -25q-72 0 -145 25t-132 74l-98 -99zM152 715q0 -72 26.5 -133.5t72.5 -107.5t107.5 -72.5t133.5 -26.5q70 0 132 26.5t108 72.5t72.5 107.5t26.5 133.5q0 70 -26.5 132t-72.5 108t-108.5 73t-131.5 27q-72 0 -133.5 -27t-107.5 -73t-72.5 -108 t-26.5 -132z" />
<glyph unicode="&#xa5;" d="M68 1430h135l289 -695l288 695h135l-335 -756h239v-86h-264v-187h264v-86h-264v-315h-127v315h-264v86h264v187h-264v86h239z" />
<glyph unicode="&#xa6;" horiz-adv-x="454" d="M176 358h103v-716h-103v716zM176 666v716h103v-716h-103z" />
<glyph unicode="&#xa7;" d="M162 -193l22 136q14 -10 41 -25.5t63 -30t75.5 -24.5t78.5 -10q41 0 82 11t75 35.5t55.5 62.5t21.5 91q0 43 -14.5 75t-40 57.5t-61.5 47t-79 46.5q-61 35 -114.5 68.5t-92 72.5t-60 86t-21.5 110q0 61 19 108.5t47 84.5t56.5 61.5t49.5 40.5q-18 12 -42 28.5t-45.5 44.5 t-36 68t-14.5 97q0 45 18.5 97t57.5 96t101.5 73t150.5 29q59 0 122.5 -16.5t113.5 -38.5l-21 -127l-14 6q-51 25 -95.5 41t-99.5 16q-102 0 -154.5 -48t-52.5 -118q0 -39 12.5 -67.5t40 -56t69.5 -57.5t104 -69q53 -35 98 -65.5t76.5 -66.5t49 -82t17.5 -107 q0 -74 -35.5 -146.5t-115.5 -138.5q20 -16 42.5 -38.5t43 -52.5t34 -69t13.5 -90t-19.5 -107.5t-62.5 -103.5t-111.5 -77.5t-167.5 -30.5q-88 0 -158.5 25.5t-121.5 47.5zM311 641q0 -31 9.5 -61.5t39 -64.5t86 -73t152.5 -86q43 53 73.5 102.5t30.5 119.5q0 45 -22.5 83.5 t-59 73.5t-85 65.5t-97.5 55.5q-16 -14 -38.5 -33.5t-42 -45t-33 -59.5t-13.5 -77z" />
<glyph unicode="&#xa8;" horiz-adv-x="380" d="M-23 1257v201h119v-201h-119zM285 1257v201h118v-201h-118z" />
<glyph unicode="&#xa9;" horiz-adv-x="1638" d="M90 715q0 152 57.5 285t155.5 231t231.5 155.5t284.5 57.5q152 0 285 -57.5t231.5 -155.5t155.5 -231.5t57 -284.5q0 -152 -57 -285t-155.5 -231.5t-231.5 -155.5t-285 -57t-285 57t-231 155.5t-155.5 231.5t-57.5 285zM193 715q0 -133 49 -249t134 -202t199.5 -135 t243.5 -49t244 49t200 135t134 202t49 249t-49 248.5t-134 201.5t-200 135.5t-244 49.5t-243.5 -49.5t-199.5 -135.5t-134 -201.5t-49 -248.5zM408 715q0 98 28.5 180t81.5 141.5t132 93t177 33.5q139 0 240.5 -76.5t122.5 -218.5h-103q-16 86 -84.5 143.5t-175.5 57.5 q-78 0 -136 -27.5t-99 -74.5t-61.5 -111.5t-20.5 -140.5q0 -70 21.5 -133.5t63.5 -112.5t100.5 -79t131.5 -30q109 0 176.5 59.5t83.5 149.5h103q-33 -135 -128 -219t-235 -84q-94 0 -171.5 35t-133 95.5t-85 142.5t-29.5 176z" />
<glyph unicode="&#xaa;" horiz-adv-x="591" d="M43 981q0 76 38 118t91 61.5t111.5 23.5t99.5 4h49q0 25 -2 55.5t-15.5 58t-42 46t-81.5 18.5q-35 0 -64.5 -9t-52 -21.5t-37 -22.5t-16.5 -13l-12 89q47 25 88 40t98 15q84 0 129 -25.5t66.5 -60.5t24.5 -69t3 -50v-289q0 -35 2 -69.5t6 -69.5h-84l-6 90h-4 q-35 -53 -81 -75.5t-95 -22.5q-39 0 -77 11t-68.5 34.5t-49 56.5t-18.5 76zM137 993q0 -37 32 -74.5t93 -37.5q14 0 42 5t56.5 22.5t50 51t21.5 93.5v65q-59 0 -113.5 -2t-94.5 -13t-63.5 -37t-23.5 -73z" />
<glyph unicode="&#xab;" d="M176 541l236 413h110l-219 -413l219 -430h-110zM461 541l235 413h111l-219 -413l219 -430h-111z" />
<glyph unicode="&#xac;" horiz-adv-x="1228" d="M96 666v102h1037v-547h-103v445h-934z" />
<glyph unicode="&#xad;" horiz-adv-x="606" d="M94 512v119h418v-119h-418z" />
<glyph unicode="&#xae;" horiz-adv-x="1638" d="M90 715q0 152 57.5 285t155.5 231t231.5 155.5t284.5 57.5q152 0 285 -57.5t231.5 -155.5t155.5 -231.5t57 -284.5q0 -152 -57 -285t-155.5 -231.5t-231.5 -155.5t-285 -57t-285 57t-231 155.5t-155.5 231.5t-57.5 285zM193 715q0 -133 49 -249t134 -202t199.5 -135 t243.5 -49t244 49t200 135t134 202t49 249t-49 248.5t-134 201.5t-200 135.5t-244 49.5t-243.5 -49.5t-199.5 -135.5t-134 -201.5t-49 -248.5zM535 297v836h321q141 0 205.5 -59.5t64.5 -172.5q0 -55 -16 -96t-45 -68.5t-66.5 -45t-80.5 -23.5l245 -371h-110l-246 371h-178 v-371h-94zM629 754h207q41 0 76.5 6t62 23.5t42 46t15.5 71.5t-16.5 70.5t-44 45t-63.5 24t-72 6.5h-207v-293z" />
<glyph unicode="&#xaf;" horiz-adv-x="380" d="M-53 1298v95h487v-95h-487z" />
<glyph unicode="&#xb0;" horiz-adv-x="819" d="M113 1147q0 61 23.5 115.5t63.5 94.5t94 63.5t116 23.5q61 0 115.5 -23.5t94 -63.5t63.5 -94.5t24 -115.5t-24 -115.5t-63.5 -94.5t-94 -63.5t-115.5 -23.5t-115.5 23.5t-94.5 63.5t-63.5 94.5t-23.5 115.5zM207 1147q0 -86 58.5 -144.5t144.5 -58.5t144 58.5t58 144.5 t-58 144.5t-144 58.5t-144.5 -58.5t-58.5 -144.5z" />
<glyph unicode="&#xb1;" horiz-adv-x="1228" d="M96 0v102h1037v-102h-1037zM96 561v103h467v372h103v-372h467v-103h-467v-373h-103v373h-467z" />
<glyph unicode="&#xb2;" horiz-adv-x="638" d="M86 578v75l70 80q41 45 91 103.5t95 122t74.5 128t29.5 123.5q4 61 -31.5 104.5t-107.5 43.5q-43 0 -93 -19.5t-83 -48.5l-12 99q33 25 85 40t111 15q63 0 108.5 -20.5t73 -52.5t40 -73t12.5 -79q0 -61 -25.5 -124t-62.5 -120t-78 -107.5t-70 -83.5l-108 -120h348v-86 h-467z" />
<glyph unicode="&#xb3;" horiz-adv-x="638" d="M80 604l6 96q16 -10 63.5 -27.5t100.5 -17.5q39 0 77 10.5t66.5 31t46 52t17.5 76.5q0 78 -60.5 117t-144.5 39h-72v86q45 0 93.5 5t87 20.5t63.5 46t25 80.5q0 8 -4.5 30.5t-20.5 47t-53 43t-101 18.5q-29 0 -67.5 -9.5t-85.5 -39.5l-6 94q12 8 34.5 15t47 13.5t48 9.5 t40.5 3q78 0 130 -22.5t82.5 -55.5t44 -71t13.5 -68q0 -78 -44 -125t-122 -68v-4q29 -4 59.5 -19.5t56 -43t42 -65.5t16.5 -87q0 -123 -81 -184.5t-228 -61.5q-72 0 -110 11.5t-60 23.5z" />
<glyph unicode="&#xb4;" horiz-adv-x="380" d="M96 1200l156 291h143l-196 -291h-103z" />
<glyph unicode="&#xb5;" horiz-adv-x="948" d="M139 -442v1486h119v-704q0 -27 3 -69t21.5 -80.5t57.5 -66.5t113 -28q55 0 99 23.5t74.5 64.5t47 95.5t16.5 115.5v649h119v-720q0 -82 3 -162t5 -162h-110q-4 35 -5.5 65.5t-3.5 88.5h-4q-4 -16 -22.5 -45t-50 -56.5t-79.5 -47t-114 -19.5q-133 0 -166 63h-4v-491h-119z " />
<glyph unicode="&#xb6;" d="M61 1042q0 188 116 288t325 100h379v-1682h-103v1587h-205v-1587h-102v920q-86 2 -160.5 30.5t-130 77.5t-87.5 118t-32 148z" />
<glyph unicode="&#xb7;" horiz-adv-x="491" d="M133 631q0 47 33 79.5t80 32.5t79.5 -32.5t32.5 -79.5t-32.5 -80t-79.5 -33t-80 33t-33 80z" />
<glyph unicode="&#xb8;" horiz-adv-x="380" d="M0 -377l20 58q41 -14 68 -21.5t68 -7.5q25 0 48 4t40.5 14.5t29 28.5t11.5 47q0 43 -32 64.5t-69 21.5q-25 0 -48 -8t-46 -19l-27 29l117 166h74l-88 -113l4 -4q16 4 29.5 7.5t31.5 3.5q63 0 113.5 -34t50.5 -104q0 -45 -19.5 -76.5t-51 -51t-70.5 -29t-78 -9.5 q-41 0 -92 5.5t-84 27.5z" />
<glyph unicode="&#xb9;" horiz-adv-x="638" d="M123 1286l166 158h94v-866h-94v763l-121 -129z" />
<glyph unicode="&#xba;" horiz-adv-x="638" d="M53 1124q0 57 12.5 114.5t42 104t81 74t130.5 27.5q80 0 131.5 -27.5t81 -74t42 -103.5t12.5 -115q0 -59 -12.5 -116.5t-42 -103.5t-81 -73.5t-131.5 -27.5t-131 27.5t-80.5 73.5t-42 103.5t-12.5 116.5zM147 1124q0 -14 3.5 -54t18.5 -82t49.5 -74.5t100.5 -32.5 q63 0 99.5 32.5t51.5 74.5t18.5 82t3.5 54t-3.5 53.5t-18.5 81t-51 74.5t-100 33q-66 0 -100.5 -33t-49.5 -74.5t-18.5 -80.5t-3.5 -54z" />
<glyph unicode="&#xbb;" d="M176 111l219 413l-219 430h111l235 -430l-235 -413h-111zM461 111l219 413l-219 430h110l236 -430l-236 -413h-110z" />
<glyph unicode="&#xbc;" horiz-adv-x="1476" d="M123 1286l166 158h94v-866h-94v763l-121 -129zM301 -68l641 1565h111l-641 -1565h-111zM797 197v86l344 575h119v-575h94v-86h-94v-197h-95v197h-368zM883 283h282v465h-4z" />
<glyph unicode="&#xbd;" horiz-adv-x="1476" d="M123 1286l166 158h94v-866h-94v763l-121 -129zM326 -68l641 1565h110l-641 -1565h-110zM887 0v76l69 80q41 45 91.5 103t95.5 121.5t74.5 128t29.5 124.5q4 61 -31.5 104t-107.5 43q-43 0 -93 -19.5t-83 -47.5l-12 98q33 25 85 40t111 15q63 0 108.5 -20.5t73 -52 t40 -72.5t12.5 -80q0 -61 -26 -123.5t-62.5 -120t-77.5 -107.5t-70 -83l-108 -121h348v-86h-467z" />
<glyph unicode="&#xbe;" horiz-adv-x="1476" d="M80 604l6 96q16 -10 63.5 -27.5t100.5 -17.5q39 0 77 10.5t66.5 31t46 52t17.5 76.5q0 78 -60.5 117t-144.5 39h-72v86q45 0 93.5 5t87 20.5t63.5 46t25 80.5q0 8 -4.5 30.5t-20.5 47t-53 43t-101 18.5q-29 0 -67.5 -9.5t-85.5 -39.5l-6 94q12 8 34.5 15t47 13.5t48 9.5 t40.5 3q78 0 130 -22.5t82.5 -55.5t44 -71t13.5 -68q0 -78 -44 -125t-122 -68v-4q29 -4 59.5 -19.5t56 -43t42 -65.5t16.5 -87q0 -123 -81 -184.5t-228 -61.5q-72 0 -110 11.5t-60 23.5zM375 -68l641 1565h110l-641 -1565h-110zM840 197v86l344 575h119v-575h94v-86h-94 v-197h-95v197h-368zM926 283h282v465h-4z" />
<glyph unicode="&#xbf;" horiz-adv-x="909" d="M139 -55q0 45 5.5 81.5t23.5 82t53 103.5t94 144q37 51 59.5 91t35 77t16.5 77t4 93h119q-4 -86 -10.5 -138t-21.5 -93t-45 -85t-79 -118q-39 -55 -62.5 -99t-35.5 -80t-16.5 -65.5t-4.5 -56.5q0 -104 60.5 -172t169.5 -68q27 0 84 10.5t129 57.5l10 -139 q-53 -23 -107.5 -35t-113.5 -12q-102 0 -172 29.5t-113 77.5t-62.5 109.5t-19.5 127.5zM422 860v184h151v-184h-151z" />
<glyph unicode="&#xc0;" horiz-adv-x="1138" d="M27 0l475 1430h135l475 -1430h-135l-125 393h-569l-129 -393h-127zM319 512h494l-242 782h-4zM365 1780h143l156 -291h-103z" />
<glyph unicode="&#xc1;" horiz-adv-x="1138" d="M27 0l475 1430h135l475 -1430h-135l-125 393h-569l-129 -393h-127zM319 512h494l-242 782h-4zM475 1489l156 291h143l-196 -291h-103z" />
<glyph unicode="&#xc2;" horiz-adv-x="1138" d="M27 0l475 1430h135l475 -1430h-135l-125 393h-569l-129 -393h-127zM311 1489l199 291h119l198 -291h-118l-140 209l-139 -209h-119zM319 512h494l-242 782h-4z" />
<glyph unicode="&#xc3;" horiz-adv-x="1138" d="M27 0l475 1430h135l475 -1430h-135l-125 393h-569l-129 -393h-127zM295 1528q0 8 5 41t22.5 68.5t51.5 64.5t91 29q33 0 57.5 -11.5t67.5 -36.5q29 -16 53.5 -29.5t42.5 -13.5q25 0 48.5 27t23.5 74h86q0 -20 -8.5 -55t-26.5 -68t-48 -56.5t-75 -23.5q-41 0 -72.5 16.5 t-56.5 32.5q-41 27 -58.5 34t-33.5 7q-23 0 -38 -12t-25.5 -28.5t-15.5 -34t-5 -25.5h-86zM319 512h494l-242 782h-4z" />
<glyph unicode="&#xc4;" horiz-adv-x="1138" d="M27 0l475 1430h135l475 -1430h-135l-125 393h-569l-129 -393h-127zM319 512h494l-242 782h-4zM356 1546v201h119v-201h-119zM664 1546v201h118v-201h-118z" />
<glyph unicode="&#xc5;" horiz-adv-x="1138" d="M27 0l475 1430h135l475 -1430h-135l-125 393h-569l-129 -393h-127zM319 512h494l-242 782h-4zM371 1671q0 84 57 141.5t141 57.5t141.5 -57.5t57.5 -141.5t-57.5 -141t-141.5 -57t-141 57t-57 141zM440 1671q0 -53 38 -91t91 -38t91 38t38 91t-37.5 91t-91.5 38 q-53 0 -91 -38t-38 -91z" />
<glyph unicode="&#xc6;" horiz-adv-x="1554" d="M27 0l731 1430h657v-119h-454v-508h432v-119h-432v-565h477v-119h-604v393h-463l-201 -393h-143zM428 512h406v815h-5z" />
<glyph unicode="&#xc7;" horiz-adv-x="1099" d="M117 723q0 137 33.5 267t107.5 231.5t190.5 162t282.5 60.5q55 0 122 -11.5t118 -35.5l-6 -144q-14 12 -40 24.5t-58.5 24t-69.5 17.5t-76 6q-25 0 -70 -6t-97 -26.5t-105.5 -60.5t-97.5 -107.5t-71.5 -167t-27.5 -238.5q0 -186 50 -306t122 -188.5t152.5 -94.5 t142.5 -26q41 0 72.5 5.5t59.5 13.5t54.5 19.5t55.5 25.5l6 -137q-29 -10 -91.5 -27.5t-152.5 -17.5h-21l-77 -99l4 -4q16 4 29.5 7.5t31.5 3.5q63 0 113.5 -34t50.5 -104q0 -45 -19.5 -76.5t-51 -51t-70.5 -29t-78 -9.5q-41 0 -92 5.5t-84 27.5l20 58q41 -14 67.5 -21.5 t67.5 -7.5q25 0 48.5 4t41 14.5t28.5 28.5t11 47q0 43 -31.5 64.5t-68.5 21.5q-25 0 -48.5 -8t-45.5 -19l-27 29l111 158q-135 18 -232.5 84.5t-161 166t-93 223.5t-29.5 257z" />
<glyph unicode="&#xc8;" horiz-adv-x="909" d="M164 0v1430h606v-119h-479v-508h457v-119h-457v-565h502v-119h-629zM291 1780h143l156 -291h-103z" />
<glyph unicode="&#xc9;" horiz-adv-x="909" d="M164 0v1430h606v-119h-479v-508h457v-119h-457v-565h502v-119h-629zM401 1489l156 291h143l-196 -291h-103z" />
<glyph unicode="&#xca;" horiz-adv-x="909" d="M164 0v1430h606v-119h-479v-508h457v-119h-457v-565h502v-119h-629zM238 1489l198 291h119l199 -291h-119l-139 209l-140 -209h-118z" />
<glyph unicode="&#xcb;" horiz-adv-x="909" d="M164 0v1430h606v-119h-479v-508h457v-119h-457v-565h502v-119h-629zM283 1546v201h118v-201h-118zM590 1546v201h119v-201h-119z" />
<glyph unicode="&#xcc;" horiz-adv-x="454" d="M23 1780h143l156 -291h-103zM164 0v1430h127v-1430h-127z" />
<glyph unicode="&#xcd;" horiz-adv-x="454" d="M133 1489l156 291h143l-196 -291h-103zM164 0v1430h127v-1430h-127z" />
<glyph unicode="&#xce;" horiz-adv-x="454" d="M-31 1489l199 291h119l198 -291h-118l-140 209l-139 -209h-119zM164 0v1430h127v-1430h-127z" />
<glyph unicode="&#xcf;" horiz-adv-x="454" d="M14 1546v201h119v-201h-119zM164 0v1430h127v-1430h-127zM322 1546v201h118v-201h-118z" />
<glyph unicode="&#xd0;" horiz-adv-x="1138" d="M25 698v86h139v646h186q358 0 528.5 -172.5t170.5 -522.5q0 -156 -39 -290t-120 -233t-207 -155.5t-298 -56.5h-221v698h-139zM291 119h131q119 0 211 43t154.5 120.5t94 187.5t31.5 245q0 55 -5 121.5t-21.5 132t-50 128t-91 109.5t-142.5 76t-204 29h-108v-527h364v-86 h-364v-579z" />
<glyph unicode="&#xd1;" horiz-adv-x="1214" d="M164 0v1430h164l600 -1270h4v1270h119v-1430h-164l-600 1262h-4v-1262h-119zM334 1528q0 8 5 41t22.5 68.5t51 64.5t91.5 29q33 0 57.5 -11.5t67.5 -36.5q29 -16 53.5 -29.5t42.5 -13.5q25 0 48.5 27t23.5 74h86q0 -20 -8.5 -55t-27 -68t-48 -56.5t-74.5 -23.5 q-41 0 -72.5 16.5t-56.5 32.5q-41 27 -58.5 34t-33.5 7q-23 0 -38 -12t-25.5 -28.5t-15.5 -34t-5 -25.5h-86z" />
<glyph unicode="&#xd2;" horiz-adv-x="1216" d="M104 715q0 31 2.5 97.5t16.5 147t45 166.5t86 157t142 116t212 45t212 -45t142.5 -116t86 -157t45 -166.5t16.5 -147.5t2 -97q0 -31 -2 -97.5t-16.5 -147.5t-45 -167t-86 -156.5t-141.5 -115.5t-213 -45t-213 45t-141 115.5t-86 156.5t-45 167t-16.5 147.5t-2.5 97.5z M240 715q0 -29 2 -85.5t12 -124t31.5 -138t62.5 -129t104.5 -96.5t155.5 -38t155.5 38t104.5 96.5t62.5 129t32 138t12.5 124t2 85.5t-2 85t-12.5 123.5t-32 138.5t-62.5 129t-104.5 96t-155.5 38t-155.5 -38t-104.5 -96t-62.5 -129t-31.5 -138.5t-12 -123.5t-2 -85z M403 1780h144l155 -291h-102z" />
<glyph unicode="&#xd3;" horiz-adv-x="1216" d="M104 715q0 31 2.5 97.5t16.5 147t45 166.5t86 157t142 116t212 45t212 -45t142.5 -116t86 -157t45 -166.5t16.5 -147.5t2 -97q0 -31 -2 -97.5t-16.5 -147.5t-45 -167t-86 -156.5t-141.5 -115.5t-213 -45t-213 45t-141 115.5t-86 156.5t-45 167t-16.5 147.5t-2.5 97.5z M240 715q0 -29 2 -85.5t12 -124t31.5 -138t62.5 -129t104.5 -96.5t155.5 -38t155.5 38t104.5 96.5t62.5 129t32 138t12.5 124t2 85.5t-2 85t-12.5 123.5t-32 138.5t-62.5 129t-104.5 96t-155.5 38t-155.5 -38t-104.5 -96t-62.5 -129t-31.5 -138.5t-12 -123.5t-2 -85z M514 1489l156 291h143l-197 -291h-102z" />
<glyph unicode="&#xd4;" horiz-adv-x="1216" d="M104 715q0 31 2.5 97.5t16.5 147t45 166.5t86 157t142 116t212 45t212 -45t142.5 -116t86 -157t45 -166.5t16.5 -147.5t2 -97q0 -31 -2 -97.5t-16.5 -147.5t-45 -167t-86 -156.5t-141.5 -115.5t-213 -45t-213 45t-141 115.5t-86 156.5t-45 167t-16.5 147.5t-2.5 97.5z M240 715q0 -29 2 -85.5t12 -124t31.5 -138t62.5 -129t104.5 -96.5t155.5 -38t155.5 38t104.5 96.5t62.5 129t32 138t12.5 124t2 85.5t-2 85t-12.5 123.5t-32 138.5t-62.5 129t-104.5 96t-155.5 38t-155.5 -38t-104.5 -96t-62.5 -129t-31.5 -138.5t-12 -123.5t-2 -85z M350 1489l199 291h119l198 -291h-118l-140 209l-139 -209h-119z" />
<glyph unicode="&#xd5;" horiz-adv-x="1216" d="M104 715q0 31 2.5 97.5t16.5 147t45 166.5t86 157t142 116t212 45t212 -45t142.5 -116t86 -157t45 -166.5t16.5 -147.5t2 -97q0 -31 -2 -97.5t-16.5 -147.5t-45 -167t-86 -156.5t-141.5 -115.5t-213 -45t-213 45t-141 115.5t-86 156.5t-45 167t-16.5 147.5t-2.5 97.5z M240 715q0 -29 2 -85.5t12 -124t31.5 -138t62.5 -129t104.5 -96.5t155.5 -38t155.5 38t104.5 96.5t62.5 129t32 138t12.5 124t2 85.5t-2 85t-12.5 123.5t-32 138.5t-62.5 129t-104.5 96t-155.5 38t-155.5 -38t-104.5 -96t-62.5 -129t-31.5 -138.5t-12 -123.5t-2 -85z M334 1528q0 8 5 41t22.5 68.5t51 64.5t91.5 29q33 0 57.5 -11.5t67.5 -36.5q29 -16 53.5 -29.5t42.5 -13.5q25 0 48.5 27t23.5 74h86q0 -20 -8.5 -55t-27 -68t-48 -56.5t-74.5 -23.5q-41 0 -72.5 16.5t-56.5 32.5q-41 27 -58.5 34t-33.5 7q-23 0 -38 -12t-25.5 -28.5 t-15.5 -34t-5 -25.5h-86z" />
<glyph unicode="&#xd6;" horiz-adv-x="1216" d="M104 715q0 31 2.5 97.5t16.5 147t45 166.5t86 157t142 116t212 45t212 -45t142.5 -116t86 -157t45 -166.5t16.5 -147.5t2 -97q0 -31 -2 -97.5t-16.5 -147.5t-45 -167t-86 -156.5t-141.5 -115.5t-213 -45t-213 45t-141 115.5t-86 156.5t-45 167t-16.5 147.5t-2.5 97.5z M240 715q0 -29 2 -85.5t12 -124t31.5 -138t62.5 -129t104.5 -96.5t155.5 -38t155.5 38t104.5 96.5t62.5 129t32 138t12.5 124t2 85.5t-2 85t-12.5 123.5t-32 138.5t-62.5 129t-104.5 96t-155.5 38t-155.5 -38t-104.5 -96t-62.5 -129t-31.5 -138.5t-12 -123.5t-2 -85z M395 1546v201h119v-201h-119zM702 1546v201h119v-201h-119z" />
<glyph unicode="&#xd7;" horiz-adv-x="1228" d="M152 129l389 389l-389 389l73 74l389 -391l390 391l73 -74l-391 -389l391 -389l-73 -74l-390 391l-389 -391z" />
<glyph unicode="&#xd8;" horiz-adv-x="1216" d="M18 33l172 217q-33 68 -50 138.5t-25.5 135t-9.5 114.5t-1 77q0 31 2.5 97.5t16.5 147t45 166.5t86 157t142 116t212 45q139 0 229.5 -53.5t145.5 -135.5l158 201l57 -49l-174 -221q33 -68 51.5 -139.5t26.5 -137t9 -117t1 -77.5q0 -31 -2 -97.5t-16.5 -147.5t-45 -167 t-86 -156.5t-141.5 -115.5t-213 -45q-141 0 -231 54t-148 140l-153 -194zM240 715q0 -20 1 -57t5 -84.5t13 -99.5t26 -103l610 774q-41 78 -108.5 129t-178.5 51q-92 0 -155.5 -38t-104.5 -96t-62.5 -129t-31.5 -138.5t-12 -124t-2 -84.5zM317 291q41 -78 110 -132.5 t181 -54.5q92 0 155.5 38t104.5 96.5t62.5 129t32 138t12.5 124t2 85.5q0 20 -1 59t-5 86t-13.5 100.5t-27.5 106.5z" />
<glyph unicode="&#xd9;" horiz-adv-x="1175" d="M164 526v904h127v-902q0 -80 10 -156.5t42 -136t90.5 -95.5t154.5 -36q100 0 159.5 39t90 100.5t39 137.5t8.5 147v902h127v-904q0 -106 -19.5 -203.5t-67.5 -172t-130 -119.5t-207 -45t-207 41t-130 113.5t-67.5 172t-19.5 213.5zM383 1780h143l156 -291h-102z" />
<glyph unicode="&#xda;" horiz-adv-x="1175" d="M164 526v904h127v-902q0 -80 10 -156.5t42 -136t90.5 -95.5t154.5 -36q100 0 159.5 39t90 100.5t39 137.5t8.5 147v902h127v-904q0 -106 -19.5 -203.5t-67.5 -172t-130 -119.5t-207 -45t-207 41t-130 113.5t-67.5 172t-19.5 213.5zM494 1489l155 291h144l-197 -291h-102z " />
<glyph unicode="&#xdb;" horiz-adv-x="1175" d="M164 526v904h127v-902q0 -80 10 -156.5t42 -136t90.5 -95.5t154.5 -36q100 0 159.5 39t90 100.5t39 137.5t8.5 147v902h127v-904q0 -106 -19.5 -203.5t-67.5 -172t-130 -119.5t-207 -45t-207 41t-130 113.5t-67.5 172t-19.5 213.5zM330 1489l198 291h119l199 -291h-119 l-139 209l-139 -209h-119z" />
<glyph unicode="&#xdc;" horiz-adv-x="1175" d="M164 526v904h127v-902q0 -80 10 -156.5t42 -136t90.5 -95.5t154.5 -36q100 0 159.5 39t90 100.5t39 137.5t8.5 147v902h127v-904q0 -106 -19.5 -203.5t-67.5 -172t-130 -119.5t-207 -45t-207 41t-130 113.5t-67.5 172t-19.5 213.5zM375 1546v201h119v-201h-119zM682 1546 v201h119v-201h-119z" />
<glyph unicode="&#xdd;" horiz-adv-x="1024" d="M88 1430h135l291 -693l287 693h135l-361 -809v-621h-126v621zM418 1489l155 291h144l-197 -291h-102z" />
<glyph unicode="&#xde;" horiz-adv-x="948" d="M164 0v1430h127v-308h141q100 0 181 -22.5t137.5 -70.5t87 -125t30.5 -185q0 -117 -36.5 -193.5t-94 -124t-128 -67t-140.5 -19.5h-178v-315h-127zM291 434h129q70 0 128 13.5t99 46t63.5 87t22.5 138.5q0 106 -34.5 164.5t-86 85t-109 31t-102.5 4.5h-110v-570z" />
<glyph unicode="&#xdf;" horiz-adv-x="948" d="M123 0v1098q0 141 36 230t90 141.5t117.5 72t116.5 19.5q63 0 122 -25t103 -72t69.5 -117.5t25.5 -162.5q0 -18 -5 -69.5t-30 -108t-75 -107.5t-140 -70v-4q88 -10 147.5 -47t96.5 -91t52 -122.5t15 -144.5q0 -37 -9 -108.5t-46 -144.5t-109.5 -127t-197.5 -54 q-27 0 -69 4t-66 10l14 127q23 -12 49.5 -17.5t50.5 -5.5q47 0 93.5 17.5t82 58.5t58 108.5t22.5 168.5q0 82 -25.5 138t-70.5 91t-106.5 50.5t-133.5 19.5v118q139 0 207 85t68 215q0 20 -3 64t-22.5 89t-60.5 80t-117 35q-80 0 -126 -39t-69.5 -97.5t-29.5 -125t-6 -123.5 v-1057h-119z" />
<glyph unicode="&#xe0;" horiz-adv-x="909" d="M84 289q0 84 26.5 141t70.5 95t98.5 58.5t110.5 31t108.5 12.5t89.5 2h76q0 49 -3.5 105.5t-24 103.5t-64.5 78.5t-126 31.5q-53 0 -98 -15t-80 -34.5t-57.5 -37t-26.5 -21.5l-18 127q74 41 137.5 66.5t149.5 25.5q121 0 186.5 -43t95 -101.5t34.5 -116t5 -85.5v-480 q0 -59 4 -116.5t8 -116.5h-106l-8 150h-4q-53 -86 -122 -125t-171 -39q-61 0 -113.5 23.5t-92.5 64.5t-62.5 96t-22.5 119zM211 289q0 -33 12.5 -68t37 -62.5t60 -45t82.5 -17.5q20 0 63.5 8.5t87.5 39t77 92t33 167.5v123q-92 0 -174 -4t-144.5 -25.5t-98.5 -70.5t-36 -137 zM250 1491h143l156 -291h-103z" />
<glyph unicode="&#xe1;" horiz-adv-x="909" d="M84 289q0 84 26.5 141t70.5 95t98.5 58.5t110.5 31t108.5 12.5t89.5 2h76q0 49 -3.5 105.5t-24 103.5t-64.5 78.5t-126 31.5q-53 0 -98 -15t-80 -34.5t-57.5 -37t-26.5 -21.5l-18 127q74 41 137.5 66.5t149.5 25.5q121 0 186.5 -43t95 -101.5t34.5 -116t5 -85.5v-480 q0 -59 4 -116.5t8 -116.5h-106l-8 150h-4q-53 -86 -122 -125t-171 -39q-61 0 -113.5 23.5t-92.5 64.5t-62.5 96t-22.5 119zM211 289q0 -33 12.5 -68t37 -62.5t60 -45t82.5 -17.5q20 0 63.5 8.5t87.5 39t77 92t33 167.5v123q-92 0 -174 -4t-144.5 -25.5t-98.5 -70.5t-36 -137 zM360 1200l156 291h143l-196 -291h-103z" />
<glyph unicode="&#xe2;" horiz-adv-x="909" d="M84 289q0 84 26.5 141t70.5 95t98.5 58.5t110.5 31t108.5 12.5t89.5 2h76q0 49 -3.5 105.5t-24 103.5t-64.5 78.5t-126 31.5q-53 0 -98 -15t-80 -34.5t-57.5 -37t-26.5 -21.5l-18 127q74 41 137.5 66.5t149.5 25.5q121 0 186.5 -43t95 -101.5t34.5 -116t5 -85.5v-480 q0 -59 4 -116.5t8 -116.5h-106l-8 150h-4q-53 -86 -122 -125t-171 -39q-61 0 -113.5 23.5t-92.5 64.5t-62.5 96t-22.5 119zM197 1200l198 291h119l199 -291h-119l-139 209l-140 -209h-118zM211 289q0 -33 12.5 -68t37 -62.5t60 -45t82.5 -17.5q20 0 63.5 8.5t87.5 39t77 92 t33 167.5v123q-92 0 -174 -4t-144.5 -25.5t-98.5 -70.5t-36 -137z" />
<glyph unicode="&#xe3;" horiz-adv-x="909" d="M84 289q0 84 26.5 141t70.5 95t98.5 58.5t110.5 31t108.5 12.5t89.5 2h76q0 49 -3.5 105.5t-24 103.5t-64.5 78.5t-126 31.5q-53 0 -98 -15t-80 -34.5t-57.5 -37t-26.5 -21.5l-18 127q74 41 137.5 66.5t149.5 25.5q121 0 186.5 -43t95 -101.5t34.5 -116t5 -85.5v-480 q0 -59 4 -116.5t8 -116.5h-106l-8 150h-4q-53 -86 -122 -125t-171 -39q-61 0 -113.5 23.5t-92.5 64.5t-62.5 96t-22.5 119zM180 1239q0 8 5 41t22.5 68.5t51.5 64.5t91 29q33 0 57.5 -11.5t67.5 -35.5q29 -16 53.5 -29.5t42.5 -13.5q25 0 48.5 26.5t23.5 73.5h86 q0 -20 -8 -55t-26.5 -68t-48.5 -56.5t-75 -23.5q-41 0 -72.5 16.5t-56.5 32.5q-41 27 -58 34t-34 7q-23 0 -38 -12t-25.5 -28.5t-15.5 -34t-5 -25.5h-86zM211 289q0 -33 12.5 -68t37 -62.5t60 -45t82.5 -17.5q20 0 63.5 8.5t87.5 39t77 92t33 167.5v123q-92 0 -174 -4 t-144.5 -25.5t-98.5 -70.5t-36 -137z" />
<glyph unicode="&#xe4;" horiz-adv-x="909" d="M84 289q0 84 26.5 141t70.5 95t98.5 58.5t110.5 31t108.5 12.5t89.5 2h76q0 49 -3.5 105.5t-24 103.5t-64.5 78.5t-126 31.5q-53 0 -98 -15t-80 -34.5t-57.5 -37t-26.5 -21.5l-18 127q74 41 137.5 66.5t149.5 25.5q121 0 186.5 -43t95 -101.5t34.5 -116t5 -85.5v-480 q0 -59 4 -116.5t8 -116.5h-106l-8 150h-4q-53 -86 -122 -125t-171 -39q-61 0 -113.5 23.5t-92.5 64.5t-62.5 96t-22.5 119zM211 289q0 -33 12.5 -68t37 -62.5t60 -45t82.5 -17.5q20 0 63.5 8.5t87.5 39t77 92t33 167.5v123q-92 0 -174 -4t-144.5 -25.5t-98.5 -70.5t-36 -137 zM242 1257v201h118v-201h-118zM549 1257v201h119v-201h-119z" />
<glyph unicode="&#xe5;" horiz-adv-x="909" d="M84 289q0 84 26.5 141t70.5 95t98.5 58.5t110.5 31t108.5 12.5t89.5 2h76q0 49 -3.5 105.5t-24 103.5t-64.5 78.5t-126 31.5q-53 0 -98 -15t-80 -34.5t-57.5 -37t-26.5 -21.5l-18 127q74 41 137.5 66.5t149.5 25.5q121 0 186.5 -43t95 -101.5t34.5 -116t5 -85.5v-480 q0 -59 4 -116.5t8 -116.5h-106l-8 150h-4q-53 -86 -122 -125t-171 -39q-61 0 -113.5 23.5t-92.5 64.5t-62.5 96t-22.5 119zM211 289q0 -33 12.5 -68t37 -62.5t60 -45t82.5 -17.5q20 0 63.5 8.5t87.5 39t77 92t33 167.5v123q-92 0 -174 -4t-144.5 -25.5t-98.5 -70.5t-36 -137 zM256 1362q0 84 57.5 141.5t141.5 57.5t141 -57.5t57 -141.5t-57 -141.5t-141 -57.5t-141.5 57.5t-57.5 141.5zM326 1362q0 -53 37.5 -91t91.5 -38q53 0 91 38t38 91t-38 91t-91 38t-91 -38t-38 -91z" />
<glyph unicode="&#xe6;" horiz-adv-x="1402" d="M76 287q0 96 35.5 161.5t95 105.5t137.5 57.5t162 17.5h115q0 57 -4.5 113.5t-25 102.5t-60 74.5t-111.5 28.5q-78 0 -131 -30.5t-96 -61.5l-11 117q2 2 22.5 15t55.5 28.5t80 29t94 13.5q74 0 122 -24.5t79 -56.5t45 -63.5t18 -44.5q35 70 75 109t79 56.5t71.5 20.5 t53.5 3q82 0 140.5 -30t97 -78t61 -106.5t34 -117.5t14.5 -112.5t3 -88.5h-579v-45q0 -29 8 -92t36.5 -128.5t84 -115t149.5 -49.5q70 0 128 29t95 47l8 -135q-23 -12 -54.5 -21.5t-65 -15.5t-65.5 -10t-56 -4q-72 0 -126 18.5t-96 51t-70 74.5t-44 91h-4 q-6 -23 -24.5 -61.5t-54.5 -77.5t-94.5 -67.5t-146.5 -28.5q-98 0 -154.5 42t-84 95t-34.5 101t-7 63zM203 287q0 -84 49 -137.5t127 -53.5q66 0 112 31t74.5 80t42 108.5t13.5 114.5v96q-61 0 -135 -5t-136.5 -27.5t-104.5 -70.5t-42 -136zM748 629h452q0 12 -3 64 t-23.5 108.5t-65.5 101.5t-127 45q-86 0 -133 -48t-69.5 -106.5t-26.5 -108.5t-4 -56z" />
<glyph unicode="&#xe7;" horiz-adv-x="757" d="M84 518q0 119 26.5 219.5t80 171t135.5 110.5t190 40q63 0 110.5 -10.5t84.5 -26.5l-6 -135q-35 29 -88.5 41t-100.5 12q-59 0 -114.5 -21.5t-97.5 -68.5t-67.5 -120t-25.5 -177q0 -143 35 -231.5t85 -136.5t105.5 -64.5t98.5 -16.5q18 0 42.5 3.5t50 9.5t48 16t35.5 27 l10 -135q-39 -16 -93.5 -27.5t-109.5 -11.5h-16l-78 -99l4 -4q16 4 29.5 7.5t31.5 3.5q63 0 113.5 -34t50.5 -104q0 -45 -19.5 -76.5t-51 -51t-70.5 -29t-78 -9.5q-41 0 -92 5.5t-84 27.5l21 58q41 -14 67.5 -21.5t67.5 -7.5q25 0 48 4t40.5 14.5t29 28.5t11.5 47 q0 43 -32 64.5t-69 21.5q-25 0 -48 -8t-46 -19l-26 29l114 160q-72 14 -135 53t-111.5 103.5t-77 156.5t-28.5 211z" />
<glyph unicode="&#xe8;" horiz-adv-x="872" d="M84 522q0 147 33 249.5t86 166t119.5 92.5t132.5 29q113 0 179 -54.5t101 -138.5t44 -186t9 -197h-577q0 -145 40 -224t90 -114.5t98 -42t67 -6.5q51 0 115.5 22.5t109.5 63.5l6 -137q-37 -20 -93 -39.5t-150 -19.5q-102 0 -173 32.5t-116 83t-69.5 112.5t-36 122.5 t-13.5 110t-2 75.5zM211 594h451q0 104 -19.5 172t-50.5 108.5t-69 57t-74 16.5q-61 0 -105.5 -37t-74 -90t-44 -114.5t-14.5 -112.5zM231 1491h144l155 -291h-102z" />
<glyph unicode="&#xe9;" horiz-adv-x="872" d="M84 522q0 147 33 249.5t86 166t119.5 92.5t132.5 29q113 0 179 -54.5t101 -138.5t44 -186t9 -197h-577q0 -145 40 -224t90 -114.5t98 -42t67 -6.5q51 0 115.5 22.5t109.5 63.5l6 -137q-37 -20 -93 -39.5t-150 -19.5q-102 0 -173 32.5t-116 83t-69.5 112.5t-36 122.5 t-13.5 110t-2 75.5zM211 594h451q0 104 -19.5 172t-50.5 108.5t-69 57t-74 16.5q-61 0 -105.5 -37t-74 -90t-44 -114.5t-14.5 -112.5zM342 1200l156 291h143l-197 -291h-102z" />
<glyph unicode="&#xea;" horiz-adv-x="872" d="M84 522q0 147 33 249.5t86 166t119.5 92.5t132.5 29q113 0 179 -54.5t101 -138.5t44 -186t9 -197h-577q0 -145 40 -224t90 -114.5t98 -42t67 -6.5q51 0 115.5 22.5t109.5 63.5l6 -137q-37 -20 -93 -39.5t-150 -19.5q-102 0 -173 32.5t-116 83t-69.5 112.5t-36 122.5 t-13.5 110t-2 75.5zM178 1200l199 291h119l198 -291h-119l-139 209l-139 -209h-119zM211 594h451q0 104 -19.5 172t-50.5 108.5t-69 57t-74 16.5q-61 0 -105.5 -37t-74 -90t-44 -114.5t-14.5 -112.5z" />
<glyph unicode="&#xeb;" horiz-adv-x="872" d="M84 522q0 147 33 249.5t86 166t119.5 92.5t132.5 29q113 0 179 -54.5t101 -138.5t44 -186t9 -197h-577q0 -145 40 -224t90 -114.5t98 -42t67 -6.5q51 0 115.5 22.5t109.5 63.5l6 -137q-37 -20 -93 -39.5t-150 -19.5q-102 0 -173 32.5t-116 83t-69.5 112.5t-36 122.5 t-13.5 110t-2 75.5zM211 594h451q0 104 -19.5 172t-50.5 108.5t-69 57t-74 16.5q-61 0 -105.5 -37t-74 -90t-44 -114.5t-14.5 -112.5zM223 1257v201h119v-201h-119zM530 1257v201h119v-201h-119z" />
<glyph unicode="&#xec;" horiz-adv-x="417" d="M4 1491h143l156 -291h-102zM150 0v1044h118v-1044h-118z" />
<glyph unicode="&#xed;" horiz-adv-x="417" d="M115 1200l155 291h144l-197 -291h-102zM150 0v1044h118v-1044h-118z" />
<glyph unicode="&#xee;" horiz-adv-x="417" d="M-49 1200l199 291h118l199 -291h-119l-139 209l-139 -209h-119zM150 0v1044h118v-1044h-118z" />
<glyph unicode="&#xef;" horiz-adv-x="417" d="M-4 1257v201h119v-201h-119zM150 0v1044h118v-1044h-118zM303 1257v201h119v-201h-119z" />
<glyph unicode="&#xf0;" horiz-adv-x="950" d="M84 494q0 98 18.5 194t62.5 172t119.5 123t190.5 47q92 0 145.5 -33.5t88.5 -74.5l4 4q-33 121 -102.5 225t-168.5 184l-200 -129l-62 54l195 124q-104 74 -223 107l69 70q139 -49 242 -121l188 121l62 -54l-187 -118q94 -74 159 -165t104.5 -191.5t58 -205t18.5 -209.5 q0 -317 -94 -474.5t-297 -157.5q-115 0 -190.5 46t-119.5 119.5t-62.5 164t-18.5 178.5zM211 494q0 -14 1 -49t8 -79t23.5 -91.5t46 -87.5t74.5 -65.5t111 -25.5t111 25.5t74.5 65.5t46 87.5t23.5 91.5t8 78.5t1 49.5q0 20 -1 60t-8 87t-23.5 96t-46 90t-74.5 67t-111 26 t-111 -26t-74.5 -67t-46 -90t-23.5 -96t-8 -87t-1 -60z" />
<glyph unicode="&#xf1;" horiz-adv-x="948" d="M131 1044h111q4 -35 5 -65.5t3 -87.5h4q8 16 26.5 45t50 56.5t78 47t111.5 19.5q72 0 122 -21.5t82 -55.5t49.5 -76t25.5 -82t9 -73.5t1 -50.5v-700h-119v705q0 27 -3 68.5t-21.5 80.5t-57.5 66.5t-112 27.5q-55 0 -99.5 -23.5t-75 -64.5t-47 -95t-16.5 -116v-649h-119 v721q0 82 -3 162t-5 161zM201 1239q0 8 5 41t22.5 68.5t51 64.5t91.5 29q33 0 57.5 -11.5t67.5 -35.5q29 -16 53 -29.5t43 -13.5q25 0 48.5 26.5t23.5 73.5h86q0 -20 -8.5 -55t-27 -68t-48 -56.5t-74.5 -23.5q-41 0 -73 16.5t-56 32.5q-41 27 -58.5 34t-33.5 7 q-23 0 -38.5 -12t-25.5 -28.5t-15 -34t-5 -25.5h-86z" />
<glyph unicode="&#xf2;" horiz-adv-x="950" d="M84 522q0 98 18.5 194.5t62.5 172.5t119.5 123t190.5 47t190.5 -47t119.5 -123t62.5 -172t18.5 -195q0 -98 -18.5 -194.5t-62.5 -172t-119.5 -122.5t-190.5 -47t-190.5 47t-119.5 122.5t-62.5 172t-18.5 194.5zM211 522q0 -20 1 -60t8 -87t23.5 -96.5t46 -90.5 t74.5 -66.5t111 -25.5t111 25.5t74.5 66.5t46 90.5t23.5 96.5t8 87t1 60t-1 60.5t-8 87.5t-23.5 96t-46 90t-74.5 66.5t-111 25.5t-111 -25.5t-74.5 -66.5t-46 -90t-23.5 -96t-8 -87t-1 -61zM270 1491h144l155 -291h-102z" />
<glyph unicode="&#xf3;" horiz-adv-x="950" d="M84 522q0 98 18.5 194.5t62.5 172.5t119.5 123t190.5 47t190.5 -47t119.5 -123t62.5 -172t18.5 -195q0 -98 -18.5 -194.5t-62.5 -172t-119.5 -122.5t-190.5 -47t-190.5 47t-119.5 122.5t-62.5 172t-18.5 194.5zM211 522q0 -20 1 -60t8 -87t23.5 -96.5t46 -90.5 t74.5 -66.5t111 -25.5t111 25.5t74.5 66.5t46 90.5t23.5 96.5t8 87t1 60t-1 60.5t-8 87.5t-23.5 96t-46 90t-74.5 66.5t-111 25.5t-111 -25.5t-74.5 -66.5t-46 -90t-23.5 -96t-8 -87t-1 -61zM381 1200l156 291h143l-197 -291h-102z" />
<glyph unicode="&#xf4;" horiz-adv-x="950" d="M84 522q0 98 18.5 194.5t62.5 172.5t119.5 123t190.5 47t190.5 -47t119.5 -123t62.5 -172t18.5 -195q0 -98 -18.5 -194.5t-62.5 -172t-119.5 -122.5t-190.5 -47t-190.5 47t-119.5 122.5t-62.5 172t-18.5 194.5zM211 522q0 -20 1 -60t8 -87t23.5 -96.5t46 -90.5 t74.5 -66.5t111 -25.5t111 25.5t74.5 66.5t46 90.5t23.5 96.5t8 87t1 60t-1 60.5t-8 87.5t-23.5 96t-46 90t-74.5 66.5t-111 25.5t-111 -25.5t-74.5 -66.5t-46 -90t-23.5 -96t-8 -87t-1 -61zM217 1200l199 291h119l198 -291h-119l-139 209l-139 -209h-119z" />
<glyph unicode="&#xf5;" horiz-adv-x="950" d="M84 522q0 98 18.5 194.5t62.5 172.5t119.5 123t190.5 47t190.5 -47t119.5 -123t62.5 -172t18.5 -195q0 -98 -18.5 -194.5t-62.5 -172t-119.5 -122.5t-190.5 -47t-190.5 47t-119.5 122.5t-62.5 172t-18.5 194.5zM201 1239q0 8 5 41t22.5 68.5t51 64.5t91.5 29 q33 0 57.5 -11.5t67.5 -35.5q29 -16 53 -29.5t43 -13.5q25 0 48.5 26.5t23.5 73.5h86q0 -20 -8.5 -55t-27 -68t-48 -56.5t-74.5 -23.5q-41 0 -73 16.5t-56 32.5q-41 27 -58.5 34t-33.5 7q-23 0 -38.5 -12t-25.5 -28.5t-15 -34t-5 -25.5h-86zM211 522q0 -20 1 -60t8 -87 t23.5 -96.5t46 -90.5t74.5 -66.5t111 -25.5t111 25.5t74.5 66.5t46 90.5t23.5 96.5t8 87t1 60t-1 60.5t-8 87.5t-23.5 96t-46 90t-74.5 66.5t-111 25.5t-111 -25.5t-74.5 -66.5t-46 -90t-23.5 -96t-8 -87t-1 -61z" />
<glyph unicode="&#xf6;" horiz-adv-x="950" d="M84 522q0 98 18.5 194.5t62.5 172.5t119.5 123t190.5 47t190.5 -47t119.5 -123t62.5 -172t18.5 -195q0 -98 -18.5 -194.5t-62.5 -172t-119.5 -122.5t-190.5 -47t-190.5 47t-119.5 122.5t-62.5 172t-18.5 194.5zM211 522q0 -20 1 -60t8 -87t23.5 -96.5t46 -90.5 t74.5 -66.5t111 -25.5t111 25.5t74.5 66.5t46 90.5t23.5 96.5t8 87t1 60t-1 60.5t-8 87.5t-23.5 96t-46 90t-74.5 66.5t-111 25.5t-111 -25.5t-74.5 -66.5t-46 -90t-23.5 -96t-8 -87t-1 -61zM262 1257v201h119v-201h-119zM569 1257v201h119v-201h-119z" />
<glyph unicode="&#xf7;" horiz-adv-x="1228" d="M96 467v102h1037v-102h-1037zM502 98q0 47 32.5 80t79.5 33t80 -33t33 -80t-32.5 -79.5t-80.5 -32.5q-47 0 -79.5 32.5t-32.5 79.5zM502 938q0 47 32.5 80t79.5 33t80 -33t33 -80t-32.5 -80t-80.5 -33q-47 0 -79.5 33t-32.5 80z" />
<glyph unicode="&#xf8;" horiz-adv-x="948" d="M33 29l121 153q-39 74 -54.5 162t-15.5 178q0 98 18.5 194.5t62.5 172.5t119.5 123t190.5 47q94 0 162 -33t113 -88l94 121l53 -45l-106 -135q41 -74 58 -167.5t17 -189.5q0 -98 -18.5 -194.5t-62.5 -172t-119.5 -122.5t-190.5 -47q-98 0 -166.5 35.5t-115.5 97.5 l-107 -133zM211 522q0 -29 3 -94.5t26 -134.5l432 547q-29 47 -76 77.5t-121 30.5q-66 0 -111 -25.5t-74.5 -66.5t-46 -90t-23.5 -96t-8 -87t-1 -61zM270 219q29 -53 78 -88t127 -35q66 0 111 25.5t74.5 66.5t46 90.5t23.5 96.5t8 87t1 60q0 16 -1 43t-4 60.5t-10 70.5 t-19 74z" />
<glyph unicode="&#xf9;" horiz-adv-x="948" d="M139 315v729h119v-704q0 -27 3 -69t21.5 -80.5t57.5 -66.5t113 -28q55 0 99 23.5t74.5 64.5t47 95.5t16.5 115.5v649h119v-720q0 -82 3 -162t5 -162h-110q-4 35 -5.5 65.5t-3.5 88.5h-4q-4 -16 -22.5 -45t-50 -56.5t-79.5 -47t-114 -19.5q-86 0 -141.5 28.5t-88 74.5 t-46 105.5t-13.5 120.5zM270 1491h144l155 -291h-102z" />
<glyph unicode="&#xfa;" horiz-adv-x="948" d="M139 315v729h119v-704q0 -27 3 -69t21.5 -80.5t57.5 -66.5t113 -28q55 0 99 23.5t74.5 64.5t47 95.5t16.5 115.5v649h119v-720q0 -82 3 -162t5 -162h-110q-4 35 -5.5 65.5t-3.5 88.5h-4q-4 -16 -22.5 -45t-50 -56.5t-79.5 -47t-114 -19.5q-86 0 -141.5 28.5t-88 74.5 t-46 105.5t-13.5 120.5zM381 1200l156 291h143l-197 -291h-102z" />
<glyph unicode="&#xfb;" horiz-adv-x="948" d="M139 315v729h119v-704q0 -27 3 -69t21.5 -80.5t57.5 -66.5t113 -28q55 0 99 23.5t74.5 64.5t47 95.5t16.5 115.5v649h119v-720q0 -82 3 -162t5 -162h-110q-4 35 -5.5 65.5t-3.5 88.5h-4q-4 -16 -22.5 -45t-50 -56.5t-79.5 -47t-114 -19.5q-86 0 -141.5 28.5t-88 74.5 t-46 105.5t-13.5 120.5zM217 1200l199 291h119l198 -291h-119l-139 209l-139 -209h-119z" />
<glyph unicode="&#xfc;" horiz-adv-x="948" d="M139 315v729h119v-704q0 -27 3 -69t21.5 -80.5t57.5 -66.5t113 -28q55 0 99 23.5t74.5 64.5t47 95.5t16.5 115.5v649h119v-720q0 -82 3 -162t5 -162h-110q-4 35 -5.5 65.5t-3.5 88.5h-4q-4 -16 -22.5 -45t-50 -56.5t-79.5 -47t-114 -19.5q-86 0 -141.5 28.5t-88 74.5 t-46 105.5t-13.5 120.5zM262 1257v201h119v-201h-119zM569 1257v201h119v-201h-119z" />
<glyph unicode="&#xfd;" horiz-adv-x="757" d="M20 1044h127l234 -868h4l233 868h119l-342 -1239q-14 -53 -29.5 -100t-41 -83t-65.5 -56.5t-101 -20.5q-25 0 -41.5 3t-38.5 10l6 120q16 -10 39.5 -16t44.5 -6q43 0 67.5 36t38.5 85l54 198zM285 1200l155 291h144l-197 -291h-102z" />
<glyph unicode="&#xfe;" horiz-adv-x="948" d="M123 1536h127v-627h4q47 72 109.5 111t148.5 39q84 0 143.5 -32t98.5 -82t61.5 -110.5t33.5 -115.5t13 -99.5t2 -62.5q0 -111 -19.5 -214t-60.5 -183t-106.5 -127t-159.5 -47t-160.5 37.5t-103.5 107.5h-4v-573h-119v1632q0 123 -2 200.5t-6 145.5zM242 535q0 -53 4 -128 t27.5 -143.5t75.5 -118t149 -49.5q68 0 112.5 33t73.5 90t41 135t12 168q0 20 -1 60.5t-8 88.5t-20.5 97t-40 89t-67.5 65.5t-100 25.5q-76 0 -126 -34.5t-79 -92t-41 -132.5t-12 -154z" />
<glyph unicode="&#xff;" horiz-adv-x="757" d="M20 1044h127l234 -868h4l233 868h119l-342 -1239q-14 -53 -29.5 -100t-41 -83t-65.5 -56.5t-101 -20.5q-25 0 -41.5 3t-38.5 10l6 120q16 -10 39.5 -16t44.5 -6q43 0 67.5 36t38.5 85l54 198zM166 1257v201h119v-201h-119zM473 1257v201h119v-201h-119z" />
<glyph unicode="&#x152;" horiz-adv-x="1517" d="M104 715q0 147 27 280t90.5 232.5t168 158t257.5 58.5q25 0 48.5 -2t47.5 -4q25 -4 49.5 -6t47.5 -2h538v-119h-446v-508h424v-119h-424v-565h469v-119h-561q-23 0 -47.5 -2t-49.5 -4q-25 -4 -48 -6t-48 -2q-154 0 -258 58t-167.5 157.5t-90.5 232.5t-27 281zM231 715 q0 -139 24 -252t74 -193t126.5 -123t185.5 -43q20 0 46 1t49.5 3.5t43 5.5t25.5 5v1192q-6 2 -25.5 5t-43 5t-49 3t-46.5 1q-109 0 -185.5 -43t-126.5 -123t-74 -192.5t-24 -251.5z" />
<glyph unicode="&#x153;" horiz-adv-x="1517" d="M84 522q0 98 18.5 194.5t62.5 172.5t119.5 123t190.5 47q133 0 213 -61.5t121 -157.5q51 117 136 168t173 51q113 0 179.5 -54.5t101.5 -138.5t44 -186t9 -197h-586q0 -145 41 -224t94.5 -114.5t102.5 -42t65 -6.5q51 0 116 22.5t110 63.5l6 -137q-37 -20 -93.5 -39.5 t-150.5 -19.5q-145 0 -228 63.5t-124 151.5q-41 -96 -120 -155.5t-210 -59.5q-115 0 -190.5 47t-119.5 122.5t-62.5 172t-18.5 194.5zM211 522q0 -20 1 -60t8 -87t23.5 -96.5t46 -90.5t74.5 -66.5t111 -25.5t111 25.5t74.5 66.5t46 90.5t23.5 96.5t8 87t1 60t-1 60.5 t-8 87.5t-23.5 96t-46 90t-74.5 66.5t-111 25.5t-111 -25.5t-74.5 -66.5t-46 -90t-23.5 -96t-8 -87t-1 -61zM866 594h459q0 104 -19.5 172t-50 108.5t-68.5 57t-75 16.5q-63 0 -109.5 -37t-77 -90t-45 -114.5t-14.5 -112.5z" />
<glyph unicode="&#x178;" horiz-adv-x="1024" d="M88 1430h135l291 -693l287 693h135l-361 -809v-621h-126v621zM299 1546v201h119v-201h-119zM606 1546v201h119v-201h-119z" />
<glyph unicode="&#x2c6;" horiz-adv-x="380" d="M-68 1200l199 291h119l199 -291h-119l-140 209l-139 -209h-119z" />
<glyph unicode="&#x2dc;" horiz-adv-x="380" d="M-84 1239q0 8 5 41t22.5 68.5t51.5 64.5t91 29q33 0 57.5 -11.5t67.5 -35.5q29 -16 53.5 -29.5t42.5 -13.5q25 0 48.5 26.5t23.5 73.5h86q0 -20 -8 -55t-26.5 -68t-48.5 -56.5t-75 -23.5q-41 0 -72.5 16.5t-56.5 32.5q-41 27 -58.5 34t-33.5 7q-23 0 -38 -12t-25.5 -28.5 t-15.5 -34t-5 -25.5h-86z" />
<glyph unicode="&#x2000;" horiz-adv-x="935" />
<glyph unicode="&#x2001;" horiz-adv-x="1870" />
<glyph unicode="&#x2002;" horiz-adv-x="935" />
<glyph unicode="&#x2003;" horiz-adv-x="1870" />
<glyph unicode="&#x2004;" horiz-adv-x="623" />
<glyph unicode="&#x2005;" horiz-adv-x="467" />
<glyph unicode="&#x2006;" horiz-adv-x="311" />
<glyph unicode="&#x2007;" horiz-adv-x="311" />
<glyph unicode="&#x2008;" horiz-adv-x="233" />
<glyph unicode="&#x2009;" horiz-adv-x="374" />
<glyph unicode="&#x200a;" horiz-adv-x="103" />
<glyph unicode="&#x2010;" horiz-adv-x="606" d="M94 512v119h418v-119h-418z" />
<glyph unicode="&#x2011;" horiz-adv-x="606" d="M94 512v119h418v-119h-418z" />
<glyph unicode="&#x2012;" horiz-adv-x="606" d="M94 512v119h418v-119h-418z" />
<glyph unicode="&#x2013;" horiz-adv-x="1024" d="M0 516v111h1024v-111h-1024z" />
<glyph unicode="&#x2014;" horiz-adv-x="2048" d="M0 516v111h2048v-111h-2048z" />
<glyph unicode="&#x2018;" horiz-adv-x="491" d="M121 1081l131 455h119l-99 -455h-151z" />
<glyph unicode="&#x2019;" horiz-adv-x="491" d="M121 1081l98 455h152l-131 -455h-119z" />
<glyph unicode="&#x201a;" horiz-adv-x="491" d="M121 -270l98 454h152l-131 -454h-119z" />
<glyph unicode="&#x201c;" d="M219 1081l131 455h119l-98 -455h-152zM514 1081l131 455h119l-98 -455h-152z" />
<glyph unicode="&#x201d;" d="M219 1081l98 455h152l-131 -455h-119zM514 1081l98 455h152l-131 -455h-119z" />
<glyph unicode="&#x201e;" d="M219 -270l98 454h152l-131 -454h-119zM514 -270l98 454h152l-131 -454h-119z" />
<glyph unicode="&#x2022;" horiz-adv-x="1024" d="M154 715q0 74 27.5 139.5t76.5 114.5t114.5 76.5t139.5 27.5t139.5 -27.5t114.5 -76.5t76.5 -115t27.5 -139q0 -74 -27.5 -139.5t-76.5 -114.5t-114.5 -77t-139.5 -28t-139.5 28t-114.5 77t-76.5 114.5t-27.5 139.5z" />
<glyph unicode="&#x2026;" horiz-adv-x="2048" d="M262 0v201h160v-201h-160zM944 0v201h160v-201h-160zM1626 0v201h160v-201h-160z" />
<glyph unicode="&#x202f;" horiz-adv-x="374" />
<glyph unicode="&#x2039;" horiz-adv-x="530" d="M92 541l236 413h110l-219 -413l219 -430h-110z" />
<glyph unicode="&#x203a;" horiz-adv-x="530" d="M92 111l219 413l-219 430h111l235 -430l-235 -413h-111z" />
<glyph unicode="&#x205f;" horiz-adv-x="467" />
<glyph unicode="&#x20ac;" d="M35 532l16 86h125q-8 96 0 193h-141l16 86h135q18 115 63.5 214t116 173t168 117t224.5 43q119 0 221 -47l-25 -133q-12 14 -38.5 25t-58.5 19.5t-62.5 13.5t-46.5 5q-96 0 -169 -36t-124.5 -95t-84 -137t-48.5 -162h575l-16 -86h-572q-8 -96 0 -193h543l-14 -86h-516 q16 -82 48.5 -159.5t84 -137t123 -96.5t167.5 -37q59 0 107.5 14.5t101.5 41.5l13 -135q-57 -16 -107.5 -26.5t-109.5 -10.5q-127 0 -223.5 43t-166 116.5t-113.5 173t-63 213.5h-149z" />
<glyph unicode="&#x2122;" horiz-adv-x="2048" d="M106 1335v95h656v-95h-277v-757h-102v757h-277zM913 578v852h177l270 -685l262 685h176v-852h-102v757h-4l-306 -757h-61l-305 757h-4v-757h-103z" />
<glyph unicode="&#xe000;" horiz-adv-x="1044" d="M0 0v1044h1044v-1044h-1044z" />
</font>
</defs>
</svg>
